<?xml version="1.0" standalone="no"?>
<!DOCTYPE svg PUBLIC "-//W3C//DTD SVG 1.1//EN" "http://www.w3.org/Graphics/SVG/1.1/DTD/svg11.dtd" >
<svg xmlns="http://www.w3.org/2000/svg">
<metadata>Generated by IcoMoon</metadata>
<defs>
<font id="icon-comet" horiz-adv-x="1024">
<font-face units-per-em="1024" ascent="960" descent="-64" />
<missing-glyph horiz-adv-x="1024" />
<glyph unicode="&#x20;" horiz-adv-x="512" d="" />
<glyph unicode="&#xe900;" glyph-name="album" d="M514.416 289.385c-42.548 0-77.003 33.701-77.003 75.214s34.455 75.174 77.003 75.174c42.548 0 77.049-33.654 77.049-75.174 0-41.56-34.501-75.214-77.049-75.214zM514.416 470.918c-60.155 0-108.915-47.599-108.915-106.366 0-58.728 48.759-106.319 108.915-106.319s108.915 47.599 108.915 106.366c0 58.728-48.712 106.366-108.915 106.366zM643.26 294.968v0c-8.96 0.103-16.304-7.086-16.4-16.044 0-0.001 0-0.001 0-0.002 0-8.847 7.333-16 16.4-16s16.4 7.152 16.4 16v0c-0.101 8.96-7.439 16.141-16.398 16.047-0.001 0-0.001 0-0.002 0zM328.499 431.946h61.944v30.885h-61.944zM725.894 251.439v0c-0.218-18.458-15.364-33.244-33.83-33.027-0.001 0-0.002 0-0.005 0h-360.173c-18.444-0.198-33.563 14.583-33.788 33.027v206.701c0 18.234 15.152 32.979 33.788 32.979h56.759c18.636 0 33.788 14.792 33.788 33.027s15.152 33.027 33.788 33.027h116.374c18.682 0 33.834-14.792 33.834-33.027s15.105-33.027 33.788-33.027h51.842c18.682 0 33.834-14.745 33.834-32.979v-206.701zM853.711 771.78h-631.405c-42.188 0-76.689 33.701-76.689 74.9s34.501 74.9 76.689 74.9h606.332c-0.268 21.331-17.774 38.414-39.105 38.164h-569.281c-59.441 0-107.707-47.105-107.707-105.159v-862.279c0-31.105 25.834-56.312 57.74-56.312h683.42c31.866 0 57.74 25.207 57.74 56.312v723.112c0 31.105-25.874 56.359-57.74 56.359z" />
<glyph unicode="&#xe901;" glyph-name="albumAlt" d="M514.285 270.508c-55.371 0-100.377 44.289-100.377 98.728 0 54.397 45.007 98.644 100.377 98.644s100.421-44.203 100.421-98.644c0-54.483-45.050-98.728-100.421-98.728zM514.285 412.848c-25.042 0-45.388-19.543-45.388-43.611 0-24.111 20.346-43.696 45.388-43.696s45.388 19.585 45.388 43.696c0 24.069-20.346 43.611-45.388 43.611zM835.426-64h-646.852c-45.304 0-82.147 36.251-82.147 80.836v816.137c0 10.026 0.508 19.205 1.439 27.495v0.55c0 54.229 44.88 98.348 100.081 98.348h4.95c7.402 0.465 15.102 0.635 22.968 0.635h538.817c12.564 0 23.18 0 31.937-0.635l5.076-0.465c18.697-2.158 27.495-8.46 27.495-27.029v-27.495h-624.432c-31.471-2.284-46.699-9.814-51.775-46.445 1.692-22.419 21.447-40.354 44.965-40.354h627.478c45.304 0 82.147-36.209 82.147-80.793v-719.946c0-44.541-36.843-80.836-82.147-80.836zM161.418 774.047v-757.213c0-14.255 12.182-25.803 27.157-25.803h646.852c14.974 0 27.157 11.547 27.157 25.803v719.946c0 14.213-12.182 25.803-27.157 25.803h-627.478c-16.709 0-32.571 4.145-46.53 11.463zM687.672 198.683h-351.343c-32.698 0-59.685 26.607-60.066 59.305v201.601c0 32.91 27.114 59.643 60.404 59.643h55.244c3.088 0 5.372 2.242 5.414 4.992 0 32.571 27.114 59.305 60.404 59.305h113.321c33.29 0 60.447-26.733 60.447-59.643 0-2.58 2.454-4.653 5.456-4.653h50.464c33.29 0 60.404-26.733 60.404-59.643v-201.263c-0.465-32.994-27.41-59.643-60.151-59.643zM336.625 464.285c-2.961 0-5.414-2.073-5.414-4.653v-201.263c0.042-2.412 2.326-4.611 5.118-4.611h351.048c3.088 0 5.372 2.2 5.372 4.95v200.925c0 2.58-2.412 4.653-5.372 4.653h-50.464c-33.332 0-60.489 26.733-60.489 59.643 0 2.58-2.454 4.653-5.414 4.653h-113.321c-2.918 0-5.414-2.158-5.414-4.653-0.423-33.036-27.326-59.643-60.023-59.643h-55.624z" />
<glyph unicode="&#xe902;" glyph-name="arrowDown" d="M521.387 272.794c-8.738 0-17.476 3.345-24.132 10.001-0.853 0.853-1.638 1.741-2.389 2.662-0.956 0.751-1.877 1.57-2.765 2.458l-168.721 168.721c-13.346 13.346-13.346 34.918 0 48.265s34.918 13.346 48.265 0l149.743-149.743 144.384 144.384c13.346 13.346 34.918 13.346 48.265 0s13.346-34.918 0-48.265l-168.516-168.516c-6.656-6.622-15.394-9.967-24.132-9.967z" />
<glyph unicode="&#xe903;" glyph-name="arrowLeft" d="M564.873 135.919c-8.738 0-17.476 3.345-24.132 10.001l-269.619 269.653c-13.346 13.346-13.346 34.953 0 48.265 1.399 1.399 2.867 2.628 4.403 3.721 1.126 1.604 2.389 3.106 3.823 4.54l269.961 269.926c13.346 13.346 34.918 13.346 48.265 0s13.346-34.918 0-48.265l-254.054-254.054 245.487-245.555c13.346-13.346 13.346-34.918 0-48.265-6.656-6.622-15.394-9.967-24.132-9.967z" />
<glyph unicode="&#xe904;" glyph-name="arrowRight" d="M415.824 752.032c8.744 0 17.488-3.344 24.136-10l269.616-269.656c13.352-13.344 13.352-34.944 0-48.256-1.4-1.4-2.864-2.624-4.4-3.72-1.136-1.608-2.392-3.112-3.832-4.536l-269.96-269.928c-13.344-13.344-34.912-13.344-48.264 0-13.344 13.344-13.344 34.92 0 48.264l254.056 254.056-245.48 245.552c-13.352 13.344-13.352 34.912 0 48.256 6.656 6.624 15.392 9.968 24.128 9.968z" />
<glyph unicode="&#xe905;" glyph-name="arrowUp" d="M516.024 514.904c8.744 0 17.488-3.344 24.144-10 0.848-0.848 1.632-1.736 2.392-2.656 0.952-0.752 1.872-1.576 2.76-2.464l168.728-168.72c13.344-13.344 13.344-34.92 0-48.264-13.352-13.344-34.92-13.344-48.264 0l-149.76 149.744-144.376-144.376c-13.352-13.344-34.92-13.344-48.264 0-13.352 13.344-13.352 34.912 0 48.264l168.512 168.504c6.656 6.624 15.392 9.968 24.128 9.968z" />
<glyph unicode="&#xe906;" glyph-name="bell" d="M1024.001 253.198c0-16.096-13.011-29.106-29.057-29.106h-160.323c-16.048 0-29.057 13.009-29.057 29.057s13.009 29.057 29.057 29.057h160.323c16.046 0 29.057-13.011 29.057-29.057zM780.892 348.321l113.339 113.387c11.351 11.351 29.754 11.351 41.105 0s11.351-29.754 0-41.105l-113.339-113.339c-11.232-11.351-29.538-11.448-40.889-0.216-0.072 0.072-0.144 0.144-0.216 0.216v0c-11.338 11.321-11.351 29.688-0.031 41.026 0.010 0.010 0.021 0.021 0.031 0.031zM935.335 84.346v0c11.338-11.351 11.327-29.743-0.024-41.081s-29.743-11.327-41.081 0.024l-113.339 113.339c-11.351 11.351-11.351 29.754 0 41.105s29.754 11.351 41.105 0l113.339-113.387zM656.711 252.523v0c50.596-51.546 49.827-134.351-1.721-184.947-50.852-49.914-132.301-49.936-183.178-0.048l184.899 184.947zM135.507 758.595v0c-11.912-12.001-22.704-25.066-32.238-39.032-1.252 1.012-2.554 1.879-3.71 3.035v0c-19.832 19.882-19.832 52.064 0 71.945v0c19.865 19.827 52.032 19.827 71.897 0 1.156-1.204 2.024-2.506 3.035-3.758v0c-13.964-9.518-27.030-20.293-39.032-32.19zM848.211 610.899l-1.302-1.252c-47.478-47.519-124.488-47.551-172.007-0.073-0.008 0.008-0.017 0.017-0.025 0.025l-148.998 148.998c-74.833 74.756-185.831 100.122-285.709 65.296v0c-4.927 7.976-10.748 15.364-17.348 22.022-48.188 48.14-126.494 48.14-174.682 0-48.14-48.188-48.14-126.542 0-174.682 6.795-6.747 14.215-12.481 22.022-17.348v0c-34.848-99.899-9.459-210.929 65.344-285.757l148.95-148.902c47.519-47.516 47.521-124.556 0.006-172.074-0.001-0.001-0.004-0.004-0.006-0.006l-1.302-1.302 43.899-43.899 565.055 565.055-43.851 43.851z" />
<glyph unicode="&#xe907;" glyph-name="bubble" d="M15.034-5.818c40.436 80.419 85.318 190.79 83.014 267.776-54.47 65.676-85.248 150.319-85.248 236.521 0 243.049 235.788 420.759 499.77 420.759 262.365 0 499.793-176.372 499.793-420.759 0-254.476-280.367-492.137-665.041-397.673-69.865-43.194-223.93-86.865-332.288-106.624z" />
<glyph unicode="&#xe908;" glyph-name="bubbleAlt" d="M15.034-5.818c40.436 80.419 85.318 190.801 83.014 267.776-54.47 65.676-85.248 150.307-85.248 236.521 0 243.049 235.788 420.759 499.77 420.759 262.365 0 499.793-176.372 499.793-420.759 0-254.476-280.367-492.137-665.041-397.673-69.865-43.194-223.93-86.865-332.288-106.624zM512.582 821.911c-221.905 0-402.444-145.094-402.444-323.433 0-93.836 17.222-176.221 74.391-234.473-11.625-86.528-16.244-138.449-16.244-138.449s82.49-1.443 176.198 53.295c358.586-95.092 570.543 135.098 570.543 319.639 0 178.327-180.55 323.421-402.444 323.421z" />
<glyph unicode="&#xe909;" glyph-name="burger" d="M71.598 376.416c-39.525 0-71.598 32.1-71.598 71.584 0 39.525 32.087 71.584 71.598 71.584h880.805c39.593 0 71.598-32.059 71.598-71.584 0-39.497-32.005-71.584-71.598-71.584h-880.805zM71.598 657.32c-39.525 0-71.598 32.087-71.598 71.598 0 39.525 32.087 71.598 71.598 71.598h880.805c39.593 0 71.598-32.059 71.598-71.598 0-39.511-32.005-71.598-71.598-71.598h-880.805zM71.598 95.484c-39.525 0-71.598 32.1-71.598 71.584 0 39.538 32.087 71.598 71.598 71.598h880.805c39.593 0 71.598-32.059 71.598-71.598 0-39.497-32.005-71.584-71.598-71.584h-880.805z" />
<glyph unicode="&#xe90a;" glyph-name="calendar" d="M365.789 345.868h-146.106v149.143h146.106v-149.143zM586.554 495.011h-146.083v-149.143h146.083v149.143zM807.366 495.011h-146.141v-149.143h146.141v149.143zM365.789 277.306h-146.106v-149.155h146.106v149.155zM586.554 277.306h-146.083v-149.155h146.083v149.155zM807.366 277.306h-146.141v-149.155h146.141v149.155zM861.801 796.079c0-25.391-20.189-45.999-45.091-45.999s-45.091 20.608-45.091 45.999v115.782c0 25.402 20.189 45.999 45.091 45.999s45.091-20.596 45.091-45.999v-115.782zM252.765 912.058c0 25.391-20.166 45.999-45.068 45.999s-45.091-20.608-45.091-45.999v-115.782c0-25.379 20.201-45.999 45.091-45.999s45.068 20.62 45.068 45.999v115.782zM916.271 837.818v-46.767c0-55.599-44.614-100.806-99.572-100.806-54.842 0-99.584 45.207-99.584 100.806v46.767h-409.868v-46.557c0-55.599-44.649-100.806-99.549-100.806-54.889 0-99.572 45.207-99.572 100.806v46.557h-108.113v-901.818h1022.057v901.818h-105.798zM922.857 37.283h-823.61v563.223h823.61v-563.223z" />
<glyph unicode="&#xe90b;" glyph-name="cart" d="M304.547 659.503l-63.337 258.525h-237.545v-70.516h190.022l158.371-681.507h514.665l150.423 493.51h-712.599zM819.2 228.643h-419.654l-79.162 360.355h601.74l-102.924-360.355zM439.145 103.319c34.979 0 63.337-28.067 63.337-62.697 0-34.595-28.358-62.662-63.337-62.662-34.991 0-63.337 28.067-63.337 62.662 0 34.63 28.346 62.697 63.337 62.697zM755.863 103.319c34.991 0 63.337-28.067 63.337-62.697 0-34.595-28.358-62.662-63.337-62.662s-63.337 28.067-63.337 62.662c0 34.63 28.358 62.697 63.337 62.697z" />
<glyph unicode="&#xe90c;" glyph-name="check" d="M865.344 795.632l-477.749-370.677-225.668 152.011-118.772-118.772 357.825-357.825 579.859 579.769z" />
<glyph unicode="&#xe90d;" glyph-name="cross" d="M130.531-31.871c-18.67 0-37.34 7.146-51.563 21.369-28.515 28.515-28.515 74.626 0 103.143l342.545 342.615-361.007 361.077c-28.515 28.515-28.515 74.626 0 103.143s74.626 28.515 103.143 0l361.077-361.077 332.476 332.476c28.515 28.515 74.626 28.515 103.143 0s28.515-74.626 0-103.143l-332.476-332.476 335.607-335.607c28.515-28.515 28.515-74.626 0-103.143s-74.626-28.515-103.143 0l-335.607 335.607-342.615-342.545c-14.223-14.292-32.893-21.438-51.563-21.438z" />
<glyph unicode="&#xe90e;" glyph-name="eye" d="M649.205 503.467v0c30.647-75.744-5.91-161.992-81.653-192.639s-161.992 5.91-192.639 81.653c-30.647 75.744 5.91 161.992 81.653 192.639 17.652 7.143 36.515 10.809 55.556 10.802 1.624 0 3.147-0.152 4.671-0.204v0c-15.062-43.805 8.24-91.527 52.046-106.589 27.473-9.445 57.877-4.003 80.367 14.388zM512.122 193.101v0c-140.776 0-254.898 114.121-254.898 254.898s114.121 254.898 254.898 254.898v0c140.763 0 254.873-114.111 254.873-254.873s-114.111-254.873-254.873-254.873zM1005.722 512.453v0c-86.776 194.939-280.17 320.533-493.55 320.521v0c-215.632 0.010-410.616-128.216-496.038-326.207v0c-16.134-37.518-16.134-80.019 0-117.537v0c85.423-197.991 280.406-326.216 496.038-326.207v0c213.374 0.018 406.745 125.63 493.499 320.572 18.328 41.125 18.328 87.733 0 128.858z" />
<glyph unicode="&#xe90f;" glyph-name="eyeCrossed" d="M649.219 501.105c4.117-10.156 6.998-20.881 8.804-31.998l-22.834 22.834c4.968 2.578 9.667 5.642 14.029 9.146zM1005.677 381.206v0c-25.635-57.369-61.070-109.832-104.714-155.037l-145.027 145.044c7.162 23.534 11.1 48.516 11.1 74.41 0 140.747-114.122 254.868-254.868 254.868-25.893 0-50.86-3.906-74.393-11.1l-108.912 108.912c58.766 21.311 120.795 32.226 183.307 32.258 220.105 0 409.368-131.665 493.527-320.539v0c18.305-40.988 18.305-87.83 0-128.817zM512.132 190.739c-140.78 0-254.884 114.122-254.884 254.884 0 52.504 16.030 101.198 43.26 141.74l78.218-78.218c-9.542-19.817-14.503-41.527-14.518-63.521 0-81.7 66.224-147.941 147.925-147.941v0c21.99 0.015 43.697 4.983 63.506 14.533l78.218-78.201c-41.866-28.242-91.224-43.315-141.724-43.275zM116.419 910.36v0c-19.178 19.182-50.272 19.185-69.454 0.008s-19.185-50.272-0.008-69.454c0 0 0 0 0 0l128.671-128.671c-68.795-54.912-124.13-125.97-159.496-207.865v0c-16.132-37.508-16.132-79.998 0-117.506 82.874-191.899 273.714-326.201 496-326.201 91.19 0 176.911 22.898 252.232 62.822l142.636-142.636c9.603-9.603 22.166-14.388 34.715-14.388v0c27.119-0.012 49.112 21.962 49.124 49.080 0.005 13.044-5.179 25.554-14.408 34.769l-859.993 860.027z" />
<glyph unicode="&#xe910;" glyph-name="gallery" d="M990.965 236.836l-218.389-57.353v193.465l94.46 24.837c29.931 7.558 48.067 37.949 40.509 67.88-0.060 0.239-0.122 0.476-0.185 0.714l-104.368 382.085c-4.040 14.151-18.69 22.441-32.902 18.617l-513.263-134.868c-11.932-3.127-22.61-9.852-30.586-19.261h-86.566c-1.379 28.169 17.279 53.411 44.613 60.357l615.873 161.851c20.697 5.582 42.041-6.495 47.916-27.111l170.473-624.195c5.449-20.418-6.686-41.387-27.103-46.837-0.173-0.046-0.348-0.092-0.522-0.136zM677.817 160.993c0-10.467-8.58-18.875-19.261-18.875h-580.011c-10.509-0.072-19.1 8.365-19.218 18.875v440.124c0 10.467 8.58 18.875 19.261 18.875h579.926c10.638 0 19.304-8.408 19.304-18.875v-440.081zM697.978 678.16h-658.899c-21.577 0-39.079-17.158-39.079-38.392v-646.158c0-21.191 17.502-38.35 39.079-38.35h658.899c21.577 0 39.079 17.158 39.079 38.35v646.158c-0.189 21.392-17.684 38.582-39.076 38.392-0.001 0-0.003 0-0.003 0z" />
<glyph unicode="&#xe911;" glyph-name="galleryAlt" d="M699.856-43.955h-660.672c-21.592 0-39.184 17.247-39.184 38.496v647.897c0 21.248 17.593 38.496 39.184 38.496h660.672c21.635 0 39.228-17.247 39.228-38.496v-647.897c0-21.248-17.636-38.496-39.228-38.496zM55.916 12.004h627.208v165.082c-7.183-2.28-14.839-3.527-22.754-3.527h-581.615c-7.958 0-15.657 1.248-22.84 3.57v-165.125zM78.756 622.609c-10.667 0-19.313-8.473-19.313-18.926v-355.283c0.043-10.366 8.646-18.883 19.14-18.883h581.744c10.624 0 19.27 8.473 19.27 18.883v355.283c0 10.452-8.689 18.926-19.356 18.926h-581.487zM774.655 180.914v218.804l88.047 15.7c14.021 3.785 27.313 13.592 35.141 27.226 7.355 12.645 9.248 27.442 5.377 41.55l-98.069 367.456c-3.743 13.592-18.753 22.496-32.947 18.71l-514.687-135.231c-8.947-2.365-16.99-6.58-23.915-12.56l-7.871-6.753h-129.296l67.228 50.325c6.409 4.775 13.506 8.215 21.206 10.194l627.639 163.619c17.549 0 33.163-11.656 37.851-28.345l170.975-626.048c2.666-9.893 1.29-20.302-3.871-29.162-5.29-9.033-13.85-15.399-24.13-17.98l-218.676-57.507zM830.615 352.964v-99.532l132.005 34.797-29.55 108.219c-15.14-17.076-35.227-29.463-58.411-35.485l-44.045-8.001z" />
<glyph unicode="&#xe912;" glyph-name="grid" d="M0.008 874.648h341.328v-284.44h-341.328v284.44zM398.232 874.648h227.568v-284.44h-227.568v284.44zM682.672 874.648h341.328v-284.44h-341.328v284.44zM0.008 533.32h512v-227.552h-512v227.552zM568.904 533.32h455.096v-227.552h-455.096v227.552zM0.008 248.872h227.552v-227.528h-227.552v227.528zM284.448 248.872h739.552v-227.528h-739.552v227.528z" />
<glyph unicode="&#xe913;" glyph-name="grid2" d="M0 476.998h398.22v-456.227h-398.22v456.227zM455.11 478.103h568.89v-456.227h-568.89v456.227zM0 875.217h1024v-341.329h-1024v341.329z" />
<glyph unicode="&#xe914;" glyph-name="grid3" d="M0.008 329.768v227.552h1023.992v-227.552h-1023.992zM0.008 649.768v227.552h1023.992v-227.552h-1023.992zM0.008 9.768v227.544h1023.992v-227.544h-1023.992z" />
<glyph unicode="&#xe915;" glyph-name="heart" d="M512-38.136c-28 0-444 351.464-506.528 636.24-28.12 168.208 98.032 336.032 294.584 336.032 84.248 0 160.808-32.12 211.944-85.76 51.144 53.648 127.712 85.76 211.904 85.76 195.704 0 322.888-166.992 294.608-336.024-99.84-319.448-478.512-636.248-506.512-636.248z" />
<glyph unicode="&#xe916;" glyph-name="heartAlt" d="M105.712 731.728c-105.712-229.728 382.464-650.928 403.376-650.928s514.912 433.2 403.384 650.92c-33.752 72.336-102.784 115.488-184.656 115.488-131.984 0-185.488-67.816-215.944-119.216-28.616 48.28-82.784 119.224-221.464 119.224-81.92 0-150.944-43.168-184.696-115.488zM512-38.136c-28 0-444 351.464-506.528 636.24-28.12 168.208 98.032 336.032 294.584 336.032 84.248 0 160.808-32.12 211.944-85.76 51.144 53.648 127.712 85.76 211.904 85.76 195.704 0 322.888-166.992 294.608-336.024-99.84-319.448-478.512-636.248-506.512-636.248z" />
<glyph unicode="&#xe917;" glyph-name="kebab" d="M583.021 920.776c39.224-39.224 39.224-102.818 0-142.043s-102.818-39.224-142.043 0c-39.224 39.224-39.224 102.818 0 142.043s102.818 39.224 142.043 0zM583.021 519.023c39.224-39.224 39.224-102.818 0-142.043s-102.818-39.224-142.043 0c-39.224 39.224-39.224 102.818 0 142.043s102.818 39.224 142.043 0zM583.021 117.267c39.224-39.224 39.224-102.818 0-142.043s-102.818-39.224-142.043 0c-39.224 39.224-39.224 102.818 0 142.043s102.818 39.224 142.043 0z" />
<glyph unicode="&#xe918;" glyph-name="key" d="M1024-45.043c0 0 0-18.957-18.967-18.957-18.957 0-170.662 0-170.662 0l-56.893 37.924v113.782h-94.815v94.815h-113.769l-80.435 80.435c-39.826-15.165-83.011-23.544-128.161-23.544-198.991 0.003-360.297 161.306-360.297 360.284 0 198.999 161.306 360.305 360.294 360.305s360.294-161.306 360.294-360.305c0-45.847-8.653-89.651-24.271-129.999l327.683-344.067v-170.673zM284.434 808.305c-73.306 0-132.728-59.436-132.728-132.741 0-73.326 59.423-132.749 132.728-132.749 73.326 0 132.749 59.423 132.749 132.749 0.003 73.306-59.423 132.741-132.749 132.741z" />
<glyph unicode="&#xe919;" glyph-name="lock" d="M736.514 648.798v0c-18.552 0.003-33.589 15.046-33.585 33.598 0.001 8.905 3.539 17.446 9.835 23.744l62.502 62.502c12.911 13.323 34.177 13.657 47.5 0.748s13.657-34.177 0.748-47.5c-0.246-0.253-0.494-0.502-0.748-0.748l-62.536-62.536c-6.285-6.295-14.82-9.825-23.716-9.808zM895.929 644.595v0c18.552 0 33.592-15.039 33.592-33.592s-15.039-33.592-33.592-33.592h-88.37c-18.552 0-33.592 15.039-33.592 33.592s15.039 33.592 33.592 33.592h88.37zM760.264 551.645l62.502-62.502c13.323-12.911 13.657-34.177 0.748-47.5s-34.177-13.657-47.5-0.748c-0.253 0.246-0.502 0.494-0.748 0.748l-62.536 62.536c-13.323 12.911-13.657 34.177-0.748 47.5s34.177 13.657 47.5 0.748c0.253-0.246 0.502-0.494 0.748-0.748zM665.366 437.304c30.004 0 54.334-24.331 54.334-54.334v-392.028c0-30.008-24.327-54.334-54.334-54.334h-543.241c-30.008-0.019-54.349 24.292-54.369 54.3 0 0.012 0 0.022 0 0.034v392.028c0 30.004 24.331 54.334 54.334 54.334h36.257v282.812c0 132.59 107.951 240.472 240.541 240.472v0c132.76-0.131 240.356-107.712 240.506-240.472v-20.948h-119.57v20.948c-0.113 66.746-54.223 120.812-120.971 120.868v0c-66.76-0.057-120.877-54.142-120.971-120.903v-282.812h387.483zM459.784 41.347l-17.838 142.944c32.154 24.658 38.232 70.713 13.574 102.867s-70.713 38.232-102.867 13.574c-32.154-24.658-38.232-70.713-13.574-102.867 3.911-5.099 8.475-9.663 13.574-13.574l-17.838-142.944h124.969z" />
<glyph unicode="&#xe91a;" glyph-name="logo" d="M999.561 458.923c0-276.275-223.744-500.224-499.78-500.224s-499.78 223.915-499.78 500.19c0 276.275 222.891 501.111 498.927 501.111v-146.705c-195.072 0-352.358-159.13-352.358-354.406 0-195.243 158.106-353.519 353.212-353.519 195.072 0 353.212 158.276 353.212 353.519h146.569zM611.123 798.72l-11.742-72.875 368.572 201.762-144.623-284.57 85.709 27.546-199.202-327.68c-41.419-75.865-120.959-123.057-207.394-123.051v0c-130.589 0.057-236.411 105.955-236.373 236.544v0.010c-0.057 82.716 43.116 159.448 113.844 202.337l231.185 139.947zM499.78 589.995v0c-72.295-0.038-130.871-58.675-130.833-130.97 0 0 0 0 0 0v-0.034c0-72.281 58.586-130.883 130.867-130.901v0c72.295 0.019 130.886 58.641 130.867 130.935 0 0 0 0 0 0v0.004c0.035 72.295-58.543 130.93-130.838 130.965-0.011 0-0.023 0-0.034 0zM999.561 458.923c0-276.275-223.744-500.224-499.78-500.224s-499.78 223.915-499.78 500.19c0 276.275 222.891 501.111 498.927 501.111v-146.705c-195.072 0-352.358-159.13-352.358-354.406 0-195.243 158.106-353.519 353.212-353.519 195.072 0 353.212 158.276 353.212 353.519h146.569z" />
<glyph unicode="&#xe91b;" glyph-name="logoFacebook" d="M951.832 942.392c30.128 0 54.56-24.424 54.56-54.56v-879.648c0-30.144-24.44-54.576-54.56-54.576h-251.976v382.904h128.512l19.248 149.232h-147.76v95.272c0 43.208 12 72.656 73.952 72.656l79.016 0.032v133.464c-13.672 1.832-60.576 5.888-115.16 5.888-113.92 0-191.92-69.544-191.92-197.264v-110.048h-128.84v-149.232h128.84v-382.912h-473.56c-30.16 0-54.576 24.448-54.576 54.576v879.656c0 30.144 24.44 54.568 54.576 54.568l879.648-0.008z" />
<glyph unicode="&#xe91c;" glyph-name="logoLinkedinAlt" d="M1023.949-53.568h-224.739v308.882c0 60.465 9.887 166.773-101.261 166.773-91.425 0-117.339-67.906-117.339-146.999v-328.55h-224.845v633.632h224.792v-81.488h2.498c51.879 76.492 114.894 102.509 202.624 102.509 170.415 0 238.321-107.453 238.321-263.142v-391.618h-0.053zM125.925 697.508c-69.467 0.364-125.665 56.615-125.925 126.082 0.313 69.414 56.511 125.612 125.925 125.978 69.467-0.313 125.718-56.511 126.029-125.978-0.26-69.52-56.511-125.822-126.029-126.082zM13.529-53.464h224.792v633.632h-224.792v-633.632z" />
<glyph unicode="&#xe91d;" glyph-name="logoGoogle1" d="M934.608 373.992v0c0-134.072-48.016-246.928-131.264-323.552h-142.28v110.448c46.632 31.216 77.624 77.832 87.84 132.856h-236.92v170.288h414.608c5.208-28.816 8.008-58.816 8.016-90.040v0z" />
<glyph unicode="&#xe91e;" glyph-name="logoGoogle2" d="M511.976-56.232v0c-172.088 0-320.96 98.656-393.392 242.528v114.064h147.064c34.632-104.056 131.664-181.496 246.328-181.496 59.224 0 109.656 15.608 149.088 42.016l142.264-110.448c-72.832-67.216-172.472-106.64-291.328-106.64l-0.024-0.024z" />
<glyph unicode="&#xe91f;" glyph-name="logoGoogle3" d="M118.608 186.296c-29.808 59.44-46.816 126.656-46.816 197.704s17 138.264 46.816 197.704h147.064v-114.064c-8.808-26.408-13.808-54.616-13.808-83.64s5-57.232 13.808-83.64l-147.064-114.064z" />
<glyph unicode="&#xe920;" glyph-name="logoGoogle4" d="M512 649.136c-114.664 0-211.72-77.44-246.328-181.496l-147.064 114.064c72.432 143.872 221.304 242.528 393.392 242.528 118.672 0 218.32-43.624 294.544-114.672l-126.264-126.264c-45.624 43.624-103.656 65.84-168.28 65.84v0z" />
<glyph unicode="&#xe921;" glyph-name="logoGooglePlus" d="M0.222 97.966c0.132-2.56 0.34-5.098 0.584-7.63-0.244 2.532-0.454 5.070-0.584 7.63zM40.51 617.972c-15.888 120.519 45.826 212.73 137.852 210 92.012-2.754 179.514-99.441 195.408-219.922 15.872-120.5-45.852-215.937-137.861-213.198-92.047 2.746-179.517 102.652-195.399 223.12zM832 704v192h-64v-192h-191.998v-64h191.998v-192h64v191.998h192v-533.309c0-93.939-76.782-170.689-170.656-170.689h-307.742c4.024 16.13 6.066 32.532 6.066 48.96 0 103.144-30.534 164.918-124.916 231.456-32.286 22.788-94.032 78.21-94.032 110.788 0 38.17 10.929 56.976 68.572 101.878 59.078 46.014 100.888 110.72 100.888 185.968 0 89.599-40.025 176.918-115.155 205.722h113.268l79.947 67.618c0 0-267.94 0-357.244 0-83.55 0-164.512-42.93-222.874-94.315 2.552 91.693 78.288 165.925 170.564 165.925h682.656c93.876 0 170.658-76.81 170.658-170.69v-85.31h-192zM185.886 194.064c-68.992 0-132.44-15.248-185.88-40.623l-0.006 201.731v67.242c46.698-39.778 109.848-63.854 184.204-63.854 11.336 0 22.344 0.224 33.126 0.994-10.57-20.185-18.134-42.912-18.134-66.521 0-39.78 21.48-72.046 48.626-98.38-20.514 0.001-40.322-0.589-61.936-0.589v0zM0.878 89.376c0.576-5.628 1.43-11.176 2.542-16.634-1.112 5.458-1.968 11.006-2.542 16.634zM459.826-29.568c0-11.8-0.88-23.304-2.696-34.432h-286.444c-82.2 0-151.314 58.852-167.234 136.559 47.108 53.43 130.598 89.336 220.216 88.371 32-0.334 61.822-5.476 88.895-14.207 74.434-51.604 127.829-80.763 142.888-139.568 2.841-11.93 4.375-24.189 4.375-36.723z" />
<glyph unicode="&#xe922;" glyph-name="logoGooglePlusAlt" d="M559.066 865.184l-59.96-43.344h-84.954c56.352-21.674 86.372-87.366 86.372-154.772 0-56.614-31.36-105.292-75.673-139.916-43.231-33.777-51.428-47.926-51.428-76.646 0-24.508 46.314-66.2 70.53-83.344 70.79-50.062 93.686-96.535 93.686-174.135 0.001-96.783-93.681-193.027-263.305-193.027-148.792 0-274.334 60.535-274.334 157.313 0 98.263 114.518 193.022 263.3 193.021 16.21 0 31.066 0.447 46.452 0.447-20.364 19.814-36.468 44.086-36.468 74.024 0 17.754 5.672 34.855 13.602 50.042-8.086-0.582-16.344-0.752-24.842-0.752-122.206 0-204.088 86.939-204.088 194.666 0 105.416 113.050 196.422 233.17 196.422 66.984 0.001 267.94 0.001 267.94 0.001v0zM465.48 209.726c-11.297 44.242-51.347 66.179-107.173 105.004-20.302 6.574-42.67 10.437-66.669 10.69-102.838 1.111-194.964-62.691-194.964-139.332 0-78.196 74.274-143.301 177.116-143.301 144.582 0 194.974 61.11 194.974 139.311 0 9.422-1.158 18.656-3.284 27.628v0zM404.212 661.8c-11.92 90.644-77.548 163.384-146.558 165.458-69.018 2.052-115.304-67.324-103.388-157.99 11.916-90.634 77.514-165.796 146.552-167.86 69.004-2.066 115.3 69.732 103.394 160.392zM1024 673.184v-64h-192v-192h-64v192h-192v64h192v192h64v-192h192z" />
<glyph unicode="&#xe923;" glyph-name="logoOrange" d="M843.589 143.143c-16.949 0-27.534-10.986-29.026-30.269h57.754c0 19.035-10.933 30.269-28.728 30.269zM349.175 65.153c0-9.59 6.015-18.54 16.899-18.54 11.779 0 23.262 4.871 34.743 15.012v33.748c-35.041-4.327-51.642-13.373-51.642-30.22zM126.034 137.272c-28.034 0-33.154-25.249-33.154-43.488 0-18.242 5.12-43.543 33.154-43.543s33.151 25.299 33.151 43.543c0 18.239-5.117 43.488-33.151 43.488zM0 960v-1024h1024v1024h-1024zM126.034 18.578c-37.081 0-70.53 23.611-70.53 75.205 0 51.592 33.45 75.2 70.53 75.2 37.078 0 70.48-23.608 70.48-75.2 0-51.595-33.403-75.205-70.48-75.205zM302.060 132.719h-1.837c-16.302 0-34.146-2.537-39.913-15.211v-94.784h-38.075v142.5h35.688v-16.75c6.811 9.046 23.561 19.684 39.266 19.684 1.489 0 3.329 0 4.871-0.196v-35.243zM438.295 22.654h-33.254l-3.329 12.478c-14.512-9.544-30.22-14.166-47.119-14.166-26.592 0-42.35 17.692-42.35 41.452 0 31.908 29.324 48.76 89.767 55.568v7.952c0 10.339-7.853 16.404-22.367 16.404-14.512 0-26.293-5.767-34.793-16.404l-25.299 14.418c13.271 18.59 33.499 27.882 60.688 27.882 37.18 0 58.055-16.106 58.055-42.3 0 0-0.050-103.035 0-103.284zM595.819 22.853h-37.525v92.698c0 17.446-4.523 25.299-18.096 25.299-11.182 0-22.367-5.070-35.138-15.805v-102.195h-37.127v138.576l31.065 4.274 3.429-16.899c17.496 12.823 31.413 19.632 48.909 19.632 29.324 0 44.483-15.553 44.483-46.373v-99.208zM754.51 30.784c0-23.757-1.887-63.075-69.731-63.421-28.034-0.199-54.029 11.033-59.199 35.486l36.984 5.966c1.536-7.010 5.863-13.964 26.841-13.964 19.436 0 28.777 9.292 28.777 31.56v16.601l-0.497 0.497c-5.966-10.685-15.012-20.775-36.782-20.775-33.251 0-59.395 23.063-59.395 71.227 0 47.666 26.99 74.357 57.256 74.407 27.367 0.050 38.099-11.911 41.103-18.888l2.987 16.255h31.659v-134.949zM908.853 88.564h-94.887c0.249-27.037 11.481-40.656 33.549-40.656 14.166 0 23.564 5.717 32.361 18.239l27.434-15.205c-12.077-20.231-33.845-30.817-63.122-30.817-41.999 0-67.049 27.039-67.049 73.909 0 47.417 25.348 74.407 66.452 74.407 41.106 0 65.559-26.194 65.559-72.517-0.003-2.487-0.298-4.924-0.298-7.361zM923.9 213.033h-14.76v-40.858h-7.803v40.858h-14.713v6.264h37.277v-6.264zM985.234 172.178h-7.75v39.316h-0.249l-15.36-39.316h-4.968l-15.459 39.316h-0.196v-39.316h-7.803v47.119h12.025l14.070-35.738 13.818 35.738h11.878v-47.119zM687.361 141.774c-13.47 0-28.532-9.839-28.532-41.949 0-17.546 1.246-46.724 28.78-46.475 28.432 0.196 30.866 29.178 30.866 48.014-0.003 22.367-10.887 40.41-31.115 40.41z" />
<glyph unicode="&#xe924;" glyph-name="logoTwitter" d="M951.832 942.392l-879.648 0.008c-30.136 0-54.576-24.424-54.576-54.568v-879.664c0-30.128 24.416-54.568 54.576-54.568l879.648 0.008c30.128 0 54.56 24.432 54.56 54.576v879.648c0 30.136-24.432 54.56-54.56 54.56zM839.096 579.664c0.312-7.064 0.48-14.168 0.48-21.304 0-217.568-165.608-468.448-468.44-468.448-92.976 0-179.52 27.256-252.384 73.976 12.88-1.52 25.984-2.312 39.272-2.312 77.144 0 148.136 26.32 204.48 70.496-72.048 1.32-132.848 48.928-153.8 114.328 10.056-1.912 20.368-2.944 30.976-2.944 15.016 0 29.56 2.008 43.376 5.776-75.32 15.128-132.072 81.672-132.072 161.44 0 0.696 0 1.384 0.016 2.072 22.192-12.336 47.584-19.744 74.568-20.6-44.176 29.528-73.248 79.92-73.248 137.040 0 30.176 8.12 58.456 22.296 82.768 81.2-99.616 202.52-165.152 339.352-172.024-2.808 12.056-4.264 24.616-4.264 37.52 0 90.92 73.72 164.64 164.64 164.64 47.36 0 90.16-19.992 120.184-52 37.504 7.384 72.736 21.088 104.544 39.952-12.288-38.448-38.408-70.712-72.392-91.088 33.304 3.984 65.032 12.832 94.56 25.928-22.072-33.008-49.984-62.008-82.144-85.216z" />
<glyph unicode="&#xe925;" glyph-name="logoInstagramAlt" d="M511.977 726.719c-153.858-0.179-278.563-124.884-278.742-278.742 0.135-153.904 124.838-278.607 278.742-278.787 153.904 0.27 278.563 124.929 278.742 278.787-0.179 153.858-124.838 278.563-278.742 278.742zM511.977 267.569c-99.548 0.089-180.273 80.725-180.408 180.317 0.089 99.592 80.814 180.317 180.408 180.408 99.592-0.089 180.317-80.77 180.408-180.317-0.089-99.592-80.814-180.317-180.408-180.408zM816.998 959.954h-610.043c-114.237-0.135-206.821-92.719-206.956-206.956v-610.043c0.135-114.237 92.719-206.821 206.956-206.912h610.043c114.281 0.089 206.821 92.629 207.002 206.912v610.043c-0.135 114.281-92.719 206.821-207.002 206.956zM925.575 142.956c-0.089-59.925-48.651-108.487-108.576-108.576h-610.043c-59.925 0.089-108.533 48.651-108.576 108.576v610.043c0.046 59.925 48.651 108.487 108.576 108.576h609.997c59.971-0.089 108.533-48.651 108.622-108.576v-610.043zM792.426 784.040c-30.593-0.046-55.389-24.842-55.389-55.479 0.089-30.637 24.842-55.389 55.479-55.389 30.547 0 55.389 24.842 55.389 55.389 0 0.046 0 0.046 0 0.089-0.046 30.637-24.886 55.389-55.479 55.389z" />
<glyph unicode="&#xe926;" glyph-name="mail" d="M886.613 221.644c1.907-1.615-0.373-4.517-2.404-3.067l-297.858 211.282c-14.954 10.583-34.777 11.235-50.396 1.657l-0.042-0.042c-14.696-9.019-33.213-9.019-47.909 0v0c-15.616 9.589-35.446 8.937-50.396-1.657l-297.776-211.24c-2.073-1.45-4.311 1.45-2.404 3.067l222.057 220.318c17.721 17.563 17.848 46.166 0.286 63.885-2.482 2.504-5.249 4.71-8.243 6.569l-293.881 183.681h7.46l417.798-187.824c18.235-9.491 39.951-9.491 58.146 0l418.709 188.074 6.921-0.25-294.128-183.681c-21.181-13.182-27.667-41.039-14.486-62.222 1.861-2.991 4.067-5.755 6.569-8.234l222.017-220.318zM1007.422 752.376v0c-8.172 6.72-18.429 10.385-29.011 10.361h-932.823c-25.115 0.046-45.521-20.265-45.588-45.381v-538.773c0.115-25.090 20.498-45.362 45.588-45.341h932.823c25.090-0.024 45.475 20.249 45.588 45.341v538.773c0 14.091-6.424 26.691-16.577 35.019z" />
<glyph unicode="&#xe927;" glyph-name="minus" d="M58.498 389.503c-32.285 0-58.497 26.212-58.497 58.497s26.198 58.497 58.497 58.497h906.991c32.34 0 58.511-26.198 58.511-58.497 0-32.272-26.157-58.497-58.511-58.497h-906.991z" />
<glyph unicode="&#xe928;" glyph-name="pencil" d="M318.805 146.364l-108.442 108.407-19.866-74.069 54.238-54.17 74.069 19.831zM170.667 106.667l52.122 13.995-38.161 38.127-13.961-52.122zM816.913 644.471l-108.442 108.442-46.421-46.421 108.442-108.407 46.421 46.421zM830.839 766.874v0c-29.938 29.932-78.47 29.932-108.407 0l108.442-108.442c29.935 29.969 29.935 78.507 0 108.442zM334.882 162.509l-108.407 108.407 419.328 419.294 108.442-108.442-419.328-419.26z" />
<glyph unicode="&#xe929;" glyph-name="photo" d="M865.442 181.071v0c0.999 21.672-15.768 40.048-37.44 41.048-21.685 0.986-40.061-15.768-41.048-37.44-0.052-1.207-0.052-2.414 0-3.608v0c0.986-21.685 19.362-38.439 41.048-37.453 20.284 0.934 36.519 17.169 37.44 37.453zM778.57 391.112v0c2.557 144.011-112.086 262.833-256.097 265.402s-262.833-112.086-265.402-256.097c-0.052-3.102-0.052-6.203 0-9.305v0c2.57-144.011 121.391-258.68 265.402-256.097 140.39 2.505 253.58 115.72 256.097 256.097v0zM72.765 556.393h148.332v75.581h-148.332v-75.581zM1024 620.424v-506.718c0-44.681-36.207-80.927-80.902-80.979h-862.119c-44.72 0-80.979 36.259-80.979 80.979v0 506.718c0 44.772 36.22 80.979 80.979 80.979h135.718c44.681 0 80.902 36.22 80.902 80.889 0 0.026 0 0.052 0 0.091 0 44.681 36.298 80.889 80.979 80.889h278.561c44.681 0 80.902-36.22 80.902-80.889 0-44.772 36.207-80.979 80.979-80.979h124.078c44.681 0 80.902-36.207 80.902-80.979zM702.146 391.112v0c2.167-101.808-78.617-186.097-180.413-188.264-101.821-2.154-186.097 78.63-188.264 180.426-0.052 2.608-0.052 5.217 0 7.838v0c0 101.834 82.55 184.384 184.384 184.384 101.847 0 184.384-82.55 184.384-184.384v0h-0.091z" />
<glyph unicode="&#xe92a;" glyph-name="photoAlt" d="M522.459 656.509c-144.011 2.569-262.832-112.086-265.403-256.097-0.052-3.102-0.052-6.202 0-9.304 2.569-144.011 121.391-258.68 265.403-256.097 140.391 2.504 253.592 115.72 256.097 256.098 2.569 144.011-112.073 262.832-256.098 265.403zM702.144 391.106c2.168-101.808-78.618-186.097-180.414-188.265-101.822-2.155-186.097 78.631-188.265 180.426-0.052 2.608-0.052 5.218 0 7.838 0 101.835 82.549 184.384 184.384 184.384 101.847 0 184.384-82.549 184.384-184.384h-0.091zM828 222.112c-21.686 0.986-40.062-15.768-41.048-37.44-0.052-1.207-0.052-2.413 0-3.607 0.986-21.686 19.362-38.44 41.048-37.452 20.272 0.934 36.505 17.17 37.44 37.452 0.999 21.673-15.768 40.048-37.44 41.048zM657.125 798.391c8.837 0 16.015-7.176 16.015-16.001 0-80.435 65.432-145.867 145.867-145.867h124.077c8.837 0 16.013-7.215 16.013-16.092v-506.732c0-8.864-7.228-16.079-16.013-16.092h-862.107c-8.877 0-16.092 7.228-16.092 16.092v506.719c0 8.877 7.215 16.092 16.092 16.092h135.719c80.383 0 145.788 65.394 145.788 145.867 0 8.825 7.215 16.001 16.092 16.001h278.549zM657.125 863.278h-278.561c-44.682 0-80.979-36.221-80.979-80.888 0-0.027 0-0.052 0-0.091 0-44.669-36.221-80.888-80.901-80.888h-135.705c-44.759 0-80.979-36.221-80.979-80.979v-506.732c0-44.72 36.246-80.979 80.979-80.979h862.12c44.694 0.052 80.901 36.298 80.901 80.979v506.719c0 44.773-36.221 80.979-80.901 80.979h-124.077c-44.773 0-80.979 36.221-80.979 80.979 0 44.682-36.221 80.902-80.915 80.902v0z" />
<glyph unicode="&#xe92b;" glyph-name="film" d="M769.016 188.222v285.108h205.686v-285.108h-205.686zM931.974 106.742v40.74h40.671v-40.74h-40.671zM850.426 106.742v40.74h40.808v-40.74h-40.808zM769.016 106.742v40.74h40.74v-40.74h-40.74zM677.379 514.069v40.671h40.74v-40.671h-40.74zM594.631 188.153v285.108h123.503v-284.971h-123.503zM677.379 106.742v40.74h40.74v-40.74h-40.74zM595.899 106.742v40.74h40.74v-40.74h-40.74zM116.961 760.066c4.402 1.063 8.874 1.988 13.483 2.912v-2.691c0-25.628 74.731-46.411 166.864-46.411 92.203 0 166.933 20.798 166.933 46.411v2.691l13.483-2.843c36.337-8.515 57.563-17.748 68.63-24.275-11.068-6.527-32.294-15.83-68.7-24.138-50.179-11.634-114.27-18.024-180.278-18.024-66.146 0-130.168 6.39-180.416 17.955-36.406 8.378-57.631 17.679-68.63 24.138 10.999 6.666 32.225 15.899 68.63 24.275zM200.718 905.926c27.188 5.962 61.468 9.233 96.59 9.233s69.487-3.271 96.674-9.233c11.358-2.484 20.080-5.106 26.691-7.59v0c-8.704-3.126-17.628-5.647-26.691-7.521-27.188-5.962-61.537-9.233-96.674-9.233s-69.418 3.271-96.59 9.233v0c-9.082 1.867-18.025 4.388-26.759 7.521 6.597 2.484 15.332 5.106 26.759 7.59zM769.016 514.069v40.671h40.74v-40.671h-40.74zM595.899 514.069v40.671h40.74v-40.671h-40.74zM850.426 514.069v40.671h40.808v-40.671h-40.808zM931.974 514.069v40.671h40.671v-40.671h-40.671zM986.693 584.909h-201.573l-107.176 107.245c-6.081 4.984-13.714 7.7-21.57 7.659h-61.744v36.062c0 28.525-51.67 53.588-130.374 68.493v93.969c-0.069 25.697-74.731 46.495-166.933 46.495-92.12 0-166.864-20.798-166.864-46.495v-93.969c-78.788-14.973-130.459-39.953-130.459-68.493v-701.944c0-45.708 133.149-82.763 297.391-82.763 164.159 0 297.239 37.055 297.239 82.763v42.796h392.064c20.576 0 37.262 16.602 37.262 37.193v433.729c0.044 20.544-16.581 37.216-37.125 37.261-0.051 0-0.101 0-0.137 0z" />
<glyph unicode="&#xe92c;" glyph-name="pieChart" d="M503.618 384l400.764 200.382c30.208-60.298 47.236-128.348 47.236-200.382 0-247.424-200.576-448-448-448s-448 200.576-448 448 200.576 448 448 448v-448zM567.618 512v448c175.39 0 327.212-100.802 400.764-247.618l-400.764-200.382z" />
<glyph unicode="&#xe92d;" glyph-name="plus" d="M526.448-51.746c-32.29 0-58.494 26.148-58.494 58.494v388.521h-409.461c-32.29 0-58.494 26.206-58.494 58.494s26.206 58.494 58.494 58.494h409.461v376.996c0 32.29 26.206 58.494 58.494 58.494 32.348 0 58.494-26.206 58.494-58.494v-376.996h380.564c32.348 0 58.494-26.206 58.494-58.494s-26.148-58.494-58.494-58.494h-380.564v-388.521c0-32.29-26.148-58.494-58.494-58.494z" />
<glyph unicode="&#xe92e;" glyph-name="power" d="M210.333 728.334c-39.333-39.334-69.777-84.556-91.333-135.667-22.444-52.889-33.667-108.221-33.667-166 0-57.777 11.223-113.111 33.667-166 21.556-51.111 52-96.333 91.333-135.667 39.333-39.333 84.556-69.777 135.667-91.333 52.889-22.444 108.222-33.667 166-33.667s113.111 11.223 166 33.667c51.111 21.556 96.334 51.999 135.667 91.333s69.778 84.556 91.333 135.667c22.445 52.889 33.667 108.222 33.667 166s-11.222 113.111-33.667 166c-21.555 51.111-51.999 96.334-91.333 135.668-8.222 8.221-18.222 12.332-30 12.332s-21.889-4.111-30.333-12.332c-8.443-8.223-12.666-18.223-12.667-30 0-11.779 4.222-21.889 12.667-30.334 31.334-31.332 55.778-67.443 73.333-108.332 17.778-42.668 26.667-87 26.667-133s-8.889-90.334-26.667-133c-17.556-40.889-41.999-77-73.333-108.333s-67.444-55.778-108.333-73.333c-42.667-17.777-87-26.667-133-26.667s-90.333 8.89-133 26.667c-40.889 17.556-77 42-108.333 73.333s-55.777 67.444-73.333 108.333c-17.778 42.667-26.667 87-26.667 133s8.889 90.333 26.667 133c17.556 40.889 42 77 73.333 108.332 8.444 8.445 12.667 18.557 12.667 30.334s-4.223 21.777-12.667 30-18.556 12.334-30.333 12.332c-11.777 0-21.777-4.111-30-12.332h-0.002zM512 938.667c-11.778 0-21.834-4.166-30.167-12.5-8.333-8.332-12.5-18.389-12.5-30.166v-426.667c0-11.778 4.167-21.833 12.5-30.167 8.333-8.333 18.389-12.5 30.167-12.5s21.834 4.166 30.167 12.5 12.5 18.389 12.5 30.167v426.666c0 11.777-4.167 21.834-12.5 30.166-8.333 8.334-18.389 12.501-30.167 12.501z" />
<glyph unicode="&#xe92f;" glyph-name="search" d="M970.622-46.597c-12.445 0-24.89 4.764-34.37 14.244l-227.123 227.123c-19.008 19.008-19.008 49.731 0 68.74s49.731 19.008 68.74 0l227.123-227.123c19.008-19.008 19.008-49.731 0-68.74-9.48-9.48-21.925-14.244-34.37-14.244zM437.524 67.548c-241.222 0-437.523 196.253-437.523 437.523 0 241.222 196.302 437.523 437.523 437.523 241.27 0 437.523-196.302 437.523-437.523 0-241.27-196.253-437.523-437.523-437.523zM437.524 845.369c-187.649 0-340.296-152.648-340.296-340.296 0-187.601 152.648-340.296 340.296-340.296 187.601 0 340.296 152.696 340.296 340.296 0 187.649-152.696 340.296-340.296 340.296z" />
<glyph unicode="&#xe930;" glyph-name="share" d="M711.547-64h-399.051c-99.804 0-181.043 80.782-181.043 180.088v396.6c0 99.348 81.239 180.129 181.084 180.129h39.54c17.195 0 31.15-13.955 31.15-31.15s-13.955-31.15-31.15-31.15h-39.54c-65.498 0-118.785-52.872-118.785-117.829v-396.6c0-64.916 53.287-117.788 118.743-117.788h399.051c65.456 0 118.702 52.831 118.702 117.788v396.6c0 64.959-53.246 117.829-118.702 117.829h-53.495c-17.195 0-31.15 13.955-31.15 31.15s13.955 31.15 31.15 31.15h53.495c99.804 0 181.002-80.823 181.002-180.129v-396.6c0-99.306-81.198-180.088-181.002-180.088zM512.022 283.217c-17.195 0-31.15 13.955-31.15 31.15v526.807l-84.686-84.146c-12.211-12.169-31.94-12.045-44.066 0.124-12.128 12.211-12.086 31.94 0.124 44.066l159.778 158.782 159.696-158.782c12.211-12.128 12.293-31.856 0.167-44.066s-31.94-12.252-44.066-0.124l-84.645 84.146v-526.807c0-17.195-13.955-31.15-31.15-31.15z" />
<glyph unicode="&#xe931;" glyph-name="time" d="M512 958.545c-281.961 0-510.545-228.585-510.545-510.545 0-281.949 228.585-510.545 510.545-510.545 281.949 0 510.545 228.596 510.545 510.545 0 281.961-228.596 510.545-510.545 510.545zM512 17.455c-237.94 0-430.545 192.57-430.545 430.545 0 237.94 192.559 430.545 430.545 430.545 237.952 0 430.545-192.559 430.545-430.545 0-237.952-192.57-430.545-430.545-430.545zM439.075 364.067v384.372c0 27.404 22.237 49.652 49.652 49.652 27.45 0 49.652-22.249 49.652-49.652v-285.079h218.287c27.45 0 49.664-22.237 49.664-49.652 0-27.392-22.202-49.652-49.664-49.652h-317.591z" />
<glyph unicode="&#xe932;" glyph-name="timeDown" d="M439.072 364.064v384.384c0 27.424 22.24 49.664 49.664 49.664 27.456 0 49.632-22.24 49.632-49.664v-285.088h154.304v-99.328l-253.6 0.032zM793.76 570.272c20.16 0 36.416-16.384 36.416-36.448v-457.28l99.168 98.496c14.176 14.24 37.472 14.176 51.584-0.128 14.144-14.304 14.048-37.408-0.192-51.584l-186.976-185.92-187.072 185.92c-14.304 14.208-14.304 37.376-0.128 51.584 14.176 14.24 37.248 14.4 51.552 0.128l99.232-98.496v457.28c0 20.16 16.32 36.448 36.416 36.448v0zM983.712 253.824c25.024 60.288 38.848 126.336 38.848 195.648 0 281.952-228.64 510.56-510.56 510.56-281.984 0-510.56-228.576-510.56-510.56s228.608-510.56 510.56-510.56c47.936 0 100 10.208 143.968 22.56-18.592 25.792-24.32 22.144-60.032 65.6-27.168-5.376-55.232-8.16-83.936-8.16-238.016 0-430.56 192.608-430.56 430.56 0 237.984 192.608 430.56 430.56 430.56 238.016 0 430.56-192.64 430.56-430.56 0-70.464-16.864-136.96-46.848-195.648 48.8-0.768 88 0 88 0z" />
<glyph unicode="&#xe933;" glyph-name="timeUp" d="M439.072 364.064v384.384c0 27.424 22.24 49.664 49.664 49.664 27.456 0 49.632-22.24 49.632-49.664v-285.088h154.304v-99.328l-253.6 0.032zM793.76 327.2c-20.096 0-36.416 16.32-36.416 36.448v457.248l-99.232-98.528c-14.304-14.272-37.376-14.080-51.552 0.128-14.176 14.24-14.176 37.376 0.128 51.616l187.072 185.92 186.976-185.92c14.24-14.176 14.336-37.312 0.192-51.616-14.112-14.304-37.408-14.336-51.584-0.128l-99.168 98.528v-457.28c-0.032-20.064-16.256-36.416-36.416-36.416v0zM895.712 643.648c29.984-58.688 46.848-125.184 46.848-195.648 0-237.952-192.576-430.56-430.56-430.56-237.952 0-430.56 192.544-430.56 430.56 0 237.952 192.544 430.56 430.56 430.56 28.704 0 56.768-2.784 83.936-8.16 35.712 43.456 41.44 39.84 60.032 65.6-43.968 12.352-96.032 22.56-143.968 22.56-281.952 0-510.56-228.576-510.56-510.56s228.576-510.56 510.56-510.56c281.952 0 510.56 228.64 510.56 510.56 0 69.312-13.824 135.36-38.848 195.648 0 0-39.2 0.736-88 0z" />
<glyph unicode="&#xe934;" glyph-name="trash" d="M705.35-63.999h-391.047c-15.068 0-27.903 11.007-30.137 25.953l-95.081 631.693h-37.244c-9.302 0-18.114 4.265-23.881 11.575-5.808 7.311-7.92 16.855-5.767 25.872l23.476 99.508c3.25 13.768 15.515 23.476 29.649 23.476h32.736c19.455 18.114 66.65 56.74 139.636 83.424l-19.617 45.246c-6.214 14.378-0.569 31.111 13.078 38.707 2.802 1.584 70.183 38.545 168.677 38.545 98.452 0 165.833-36.96 168.636-38.545 13.688-7.636 19.374-24.369 13.119-38.707l-19.049-43.865c75.18-26.725 123.674-66.366 143.454-84.805h32.695c14.134 0 26.36-9.707 29.608-23.476l23.516-99.508c2.153-9.058 0.040-18.602-5.767-25.913-5.767-7.311-14.541-11.575-23.881-11.575h-41.591l-95.121-631.734c-2.233-14.866-15.027-25.872-30.096-25.872zM340.502-3.076h338.612l89.801 596.723h-70.996l-40.615-320.66c-2.112-16.653-17.302-28.188-34.077-26.36-16.653 2.112-28.471 17.383-26.36 34.077l39.681 312.942h-248.973l39.681-312.983c2.112-16.693-9.707-31.964-26.4-34.077-16.53-2.274-31.924 9.667-34.036 26.36l-40.697 320.7h-75.423l89.801-596.723zM671.477 654.571h162.259l-9.138 38.585h-625.154l-9.138-38.585h162.259c0.284 0 0.609 0 0.853 0h317.166c0.325 0 0.569 0 0.894 0zM311.826 754.079h399.901c-45.246 25.344-111.855 50.647-197.513 50.647-0.731 0-1.462 0-2.193 0.081-0.731-0.040-1.422-0.081-2.153-0.081-86.39 0-152.998-25.303-198.041-50.647zM396.063 879.134l10.601-24.491c31.111 6.823 65.513 11.007 103.204 11.007 0.731 0 1.462 0 2.153-0.081 0.731 0.040 1.462 0.081 2.193 0.081 36.026 0 69.168-3.818 99.184-10.153l10.236 23.597c-24.288 8.895-64.457 19.983-113.805 19.983s-89.517-11.088-113.764-19.942zM510.152 277.861c0 0-0.040 0-0.081 0-16.815 0.040-30.421 13.728-30.381 30.543l0.772 316.232c0.040 16.815 13.647 30.381 30.462 30.381 0 0 0.040 0 0.081 0 16.815-0.040 30.462-13.688 30.421-30.543l-0.813-316.232c-0.040-16.774-13.688-30.381-30.462-30.381z" />
<glyph unicode="&#xe935;" glyph-name="user" d="M741.686 469.448c129.083-80.683 249.405-192.498 191.996-308.967-110.614-224.48-421.682-217.023-421.682-217.023s-311.020-7.458-421.682 217.023c-57.409 116.469 62.915 228.284 191.996 308.967v0c60.522-61.669 143.28-96.439 229.686-96.499 89.592 0 170.775 36.887 229.686 96.499zM512.001 446.174c-139.643 0-253.26 115.268-253.26 256.913s113.617 256.913 253.26 256.913c139.643 0 253.26-115.268 253.26-256.913s-113.617-256.913-253.26-256.913z" />
<glyph unicode="&#xe936;" glyph-name="user2" d="M630.124 300.237v0c-1.522 10.233-4.447 20.208-8.679 29.646l-0.218 0.505c-4.525 9.92-10.024 19.365-16.416 28.198l-0.724 1.012c-2.188 3.022-4.454 5.992-6.796 8.893v0c-4.963 6.159-10.198 12.097-15.693 17.789l-1.086 1.155c-2.725 2.793-5.498 5.544-8.318 8.243l-0.218 0.218c-27.597 25.486-57.74 48.069-89.954 67.391v0c-91.341-91.535-239.592-91.689-331.128-0.348-0.118 0.117-0.23 0.23-0.348 0.348-32.541-20.030-64.284-42.806-90.029-67.467h-0.143c-2.849-2.743-5.644-5.542-8.387-8.387l-1.012-1.086c-5.641-5.859-10.92-11.787-15.762-17.858l-0.143-0.143c-2.551-3.156-5.011-6.387-7.375-9.691v0c-6.511-9.002-12.082-18.646-16.63-28.779-4.337-9.76-7.232-19.668-8.679-29.646v-0.143c-2.385-16.848-0.288-33.988 7.232-51.342 0.724-1.809 1.447-3.545 2.385-5.279 79.833-159.662 304.284-154.382 304.284-154.382s224.381-5.279 304.209 154.382c0.943 1.735 1.666 3.471 2.385 5.204 7.594 17.354 9.616 34.563 7.232 51.342v0.218zM316.294 446.737v0c100.841 0.163 182.539 81.889 182.655 182.729v0.001c-0.122 100.841-81.817 182.567-182.658 182.727v0c-100.895-0.080-182.682-81.835-182.804-182.729v-0.001c0.122-100.895 81.905-182.649 182.806-182.727zM895.938 478.773v0c-64.862-65.096-170.211-65.287-235.307-0.425-0.142 0.142-0.284 0.283-0.425 0.425v0c-23.81-14.25-45.995-31.052-66.162-50.113 88.944-79.253 89.519-146.645 68.333-193.867 58.281-23.431 115.695-22.127 115.695-22.127s159.662-3.762 216.426 109.841c29.503 58.936-32.323 115.481-98.56 156.265zM648.127 597.001v-0.001c0.121 71.715 58.226 129.824 129.938 129.941v0c71.745-0.080 129.893-58.196 130.015-129.94v0.001c-0.121-71.745-58.27-129.866-130.014-129.941v0c-71.715 0.122-129.824 58.226-129.94 129.94z" />
<glyph unicode="&#xe937;" glyph-name="user3" d="M311.085 433.992v0c-14.604 13.808-30.673 25.981-47.921 36.299v0c-46.989-47.099-123.263-47.188-170.362-0.198-0.066 0.066-0.133 0.132-0.198 0.198-47.921-29.558-92.604-70.475-71.271-113.088 41.075-82.203 156.551-79.442 156.551-79.442s41.606-0.956 83.688 15.973c-15.284 34.176-14.859 82.946 49.513 140.259zM739.131 341.123v0c-1.139 7.518-3.318 14.84-6.474 21.758v0c-3.273 7.206-7.255 14.067-11.887 20.484l-0.478 0.636c-1.588 2.201-3.233 4.36-4.935 6.474v0c-3.591 4.466-7.381 8.769-11.357 12.896l-0.849 0.849c-1.948 2.015-3.929 3.996-5.943 5.943-0.106 0-0.106 0.106-0.16 0.106v0c-19.977 18.443-41.796 34.785-65.114 48.77v0c-66.081-66.223-173.336-66.338-239.559-0.256-0.086 0.085-0.171 0.171-0.256 0.256v0c-23.321-13.978-45.141-30.321-65.114-48.77l-0.106-0.053-6.050-6.050-0.743-0.796c-4.086-4.245-7.96-8.491-11.462-12.896l-0.053-0.106c-1.836-2.283-3.606-4.62-5.307-7.005v0c-4.717-6.523-8.753-13.511-12.046-20.856v0c-3.084-6.821-5.208-14.036-6.315-21.44v-0.106c-1.698-12.206-0.212-24.624 5.254-37.148 0.531-1.274 1.061-2.548 1.698-3.768 57.791-115.529 220.127-111.708 220.127-111.708s162.388-3.82 220.127 111.708c0.69 1.221 1.221 2.494 1.752 3.715v0.053c5.466 12.524 6.952 24.942 5.254 37.148v0.106zM512 447.047v0c73.013 0.058 132.187 59.232 132.245 132.245v-0.001c-0.087 72.992-59.253 132.134-132.245 132.193v0c-72.951-0.117-132.052-59.241-132.139-132.192v0.004c0.056-72.972 59.164-132.13 132.135-132.249zM177.881 461.747c51.847 0 94.036 42.189 94.036 94.036s-42.186 94.036-94.033 94.036c-51.847 0-94.036-42.189-94.036-94.036s42.189-94.036 94.036-94.036zM931.45 470.238v0c-46.948-47.099-123.188-47.221-170.287-0.274-0.091 0.091-0.182 0.182-0.274 0.274v0c-17.244-10.304-33.313-22.458-47.921-36.246 64.372-57.314 64.743-106.136 49.459-140.259 42.136-16.982 83.742-15.973 83.742-15.973s115.423-2.759 156.551 79.442c21.28 42.614-23.35 83.529-71.324 113.035zM752.133 555.783c0 51.847 42.189 94.036 94.036 94.036s93.983-42.189 93.983-94.036c0-51.847-42.136-94.036-93.983-94.036v0c-51.91 0.058-93.978 42.126-94.036 94.036z" />
<glyph unicode="&#xe938;" glyph-name="userAlt" d="M741.682 469.443c-58.9-59.616-140.077-96.497-229.688-96.497-86.409 0.059-169.169 34.829-229.688 96.497-129.073-80.684-249.407-192.501-191.997-308.964 110.668-224.48 421.685-217.019 421.685-217.019s311.076-7.461 421.685 217.019c57.422 116.463-62.912 228.28-191.997 308.964zM848.572 171.271c-88.286-169.322-336.567-151.948-336.567-151.948s-248.223-17.373-336.543 151.948c-45.82 87.852 3.883 151.28 97.154 210.485 48.295-46.524 170.448-83.605 239.401-83.64 71.511 0 192.408 38.665 239.424 83.64 97.576-63.287 142.927-122.633 97.131-210.485zM511.994 960c-139.643 0-253.255-115.266-253.255-256.915 0-141.637 113.612-256.903 253.255-256.903s253.267 115.266 253.267 256.903c0 141.649-113.624 256.915-253.267 256.915zM511.994 515.346c-102.034 0-185.064 84.238-185.064 187.727 0 103.512 83.030 187.739 185.064 187.739 102.046 0 185.064-84.238 185.064-187.739 0-103.489-83.018-187.727-185.064-187.727z" />
<glyph unicode="&#xe939;" glyph-name="wheel" d="M555.127-63.997h-86.209c-27.008 0-49.379 20.097-52.88 46.196l-18.232 62.701c-31.373 8.866-61.519 21.371-89.983 37.329l-57.336-31.556c-20.325-15.414-51.516-13.686-69.931 4.638l-61.064 61.019c-19.097 19.187-20.689 49.242-4.774 70.113l31.509 57.381c-15.96 28.463-28.417 58.609-37.284 89.983l-62.701 18.232c-26.008 3.501-46.196 25.781-46.242 52.744v86.299c0 27.008 20.188 49.379 46.287 52.88l62.701 18.232c8.866 31.373 21.371 61.519 37.284 89.983l-31.509 57.291c-15.869 20.87-14.323 50.879 4.684 69.976l60.974 60.974c18.415 18.505 49.743 20.325 70.113 4.729l57.291-31.464c28.463 15.96 58.609 28.417 89.983 37.329l18.232 62.701c3.501 26.1 25.827 46.287 52.835 46.287h86.254c26.963 0 49.334-20.188 52.835-46.242l18.232-62.747c31.373-8.866 61.519-21.371 89.983-37.284l57.336 31.464c20.188 15.504 51.288 13.823 69.885-4.546l61.064-61.064c10.14-10.095 15.687-23.553 15.687-37.83 0-11.822-3.864-23.098-10.958-32.328l-31.419-57.245c15.96-28.463 28.463-58.609 37.284-89.983l62.837-18.279c25.962-3.593 46.105-25.962 46.105-52.88v-86.209c0-26.963-20.097-49.334-46.196-52.835l-62.747-18.232c-8.866-31.373-21.371-61.565-37.284-89.983l31.373-57.2c7.093-9.185 10.958-20.37 11.003-32.146 0.045-7.412-1.409-14.641-4.275-21.279v-28.009l-22.689-0.045-49.652-49.606c-18.187-18.415-49.606-20.37-70.113-4.729l-57.245 31.419c-28.509-15.96-58.609-28.417-89.983-37.284l-18.232-62.747c-3.501-26.053-25.872-46.15-52.835-46.15zM487.469 13.253h49.061l28.054 96.394 22.279 4.957c38.33 8.548 74.614 23.643 107.806 44.741l19.325 12.277 88.118-48.379 34.648 34.648-48.379 88.118 12.322 19.279c21.052 33.146 36.102 69.385 44.696 107.806l4.957 22.279 96.394 28.054v49.016l-96.394 28.054-4.957 22.279c-8.548 38.33-23.643 74.614-44.741 107.851l-12.277 19.279 48.379 88.072-34.693 34.693-88.118-48.379-19.325 12.277c-33.146 21.052-69.385 36.102-107.806 44.696l-22.279 5.002-28.054 96.394h-49.016l-28.054-96.439-22.279-5.002c-38.376-8.548-74.66-23.643-107.851-44.696l-19.279-12.277-88.072 48.379-34.648-34.648 48.379-88.072-12.277-19.279c-21.052-33.146-36.102-69.476-44.696-107.851l-5.002-22.279-96.394-28.054v-49.016l96.439-28.054 5.002-22.279c8.548-38.33 23.598-74.614 44.65-107.806l12.277-19.325-48.424-88.118 34.693-34.648 88.072 48.424 19.325-12.322c33.192-21.098 69.476-36.148 107.806-44.65l22.324-5.002 28.009-96.394zM511.977 235.186c-117.354 0-212.793 95.439-212.793 212.793 0 56.836 22.098 110.261 62.338 150.456 40.194 40.194 93.621 62.338 150.456 62.338 117.354 0 212.793-95.484 212.793-212.793 0-117.354-95.439-212.793-212.793-212.793zM511.977 583.475c-36.193 0-70.204-14.095-95.803-39.694s-39.694-59.655-39.694-95.803c0-74.75 60.746-135.496 135.451-135.496 74.75 0 135.496 60.791 135.496 135.496 0.091 74.705-60.701 135.496-135.451 135.496v0z" />
<glyph unicode="&#xe93a;" glyph-name="picture" d="M969.705 950.037h-915.409c-29.977 0-54.296-23.852-54.296-53.346v-897.707c0-29.435 24.318-53.287 54.296-53.287h915.409c29.986 0 54.296 23.843 54.296 53.287v897.707c-0.258 29.727-24.56 53.612-54.296 53.346zM648.965 649.173c0 27.094 16.476 50.345 39.953 60.271 7.826 3.309 16.435 5.142 25.469 5.142 2.258 0 4.492-0.117 6.692-0.342 32.977-3.35 58.729-31.211 58.729-65.088 0-36.119-29.302-65.413-65.421-65.413-36.128 0-65.405 29.285-65.421 65.413 0 0 0 0.008 0 0.017 0-0.008 0-0.008 0 0zM223.708 191.223c0 0 0.117 0.383 0.35 1.125 0.233 0.75 0.575 1.85 1.025 3.292 0.45 1.433 1 3.209 1.65 5.292 18.918 60.446 120.876 382.828 144.177 382.828 25.71 0 161.212-245.335 179.897-245.335 18.693 0 126.184 114.492 147.211 114.492 1.317 0 2.975-1.025 4.942-2.942 29.402-28.744 125.918-258.744 125.893-258.744h-605.144z" />
<glyph unicode="&#xe93b;" glyph-name="pictureAlt" d="M673.024 461.234c-21.027 0-128.518-114.492-147.211-114.492s-154.186 245.335-179.896 245.335c-25.694 0-147.202-392.529-147.202-392.529h605.144c0.017 0.008-109.791 261.686-130.835 261.686zM689.375 592.086c36.119 0 65.421 29.285 65.421 65.413 0 36.136-29.302 65.43-65.421 65.43-36.128 0-65.421-29.294-65.421-65.43 0.025-36.128 29.302-65.413 65.421-65.413zM969.704 950.037h-915.409c-29.977 0-54.296-23.852-54.296-53.346v-897.707c0-29.435 24.318-53.287 54.296-53.287h915.409c29.986 0 54.296 23.843 54.296 53.287v897.707c-0.258 29.727-24.56 53.612-54.296 53.346zM941.694 56.58v-0.058c0-14.543-11.934-26.219-26.769-26.219h-805.801c-14.601-0.117-26.544 11.626-26.702 26.219v786.483c0 14.543 11.918 26.219 26.76 26.219h805.692c14.776 0 26.819-11.684 26.819-26.219v-786.424z" />
<glyph unicode="&#xe93c;" glyph-name="settings" d="M55.622 734.659h641.997c5.019-8.977 11.308-17.427 18.937-25.054 44.557-44.557 116.795-44.557 161.352 0 7.628 7.628 13.919 16.083 18.937 25.054h71.533c30.72 0 55.621 24.901 55.621 55.621s-24.901 55.621-55.621 55.621h-71.533c-5.019 8.972-11.308 17.427-18.937 25.054-44.557 44.557-116.795 44.557-161.352 0-7.628-7.628-13.919-16.083-18.937-25.054h-641.997c-30.72 0-55.621-24.901-55.621-55.621s24.906-55.621 55.621-55.621zM968.378 161.338h-71.533c-5.019 8.977-11.308 17.427-18.937 25.054-44.557 44.557-116.795 44.557-161.352 0-7.628-7.628-13.922-16.083-18.937-25.054h-641.997c-30.72 0-55.621-24.901-55.621-55.621s24.901-55.621 55.621-55.621h642c5.014-8.972 11.305-17.422 18.932-25.051 44.557-44.557 116.795-44.557 161.352 0 7.628 7.628 13.919 16.083 18.932 25.051h71.537c30.72 0 55.621 24.901 55.621 55.621s-24.901 55.621-55.621 55.621zM968.378 503.619h-642c-5.014 8.977-11.308 17.427-18.937 25.054-44.557 44.557-116.795 44.557-161.352 0-7.628-7.628-13.919-16.083-18.937-25.054h-71.528c-30.72 0-55.621-24.901-55.621-55.621s24.901-55.621 55.621-55.621h71.528c5.014-8.972 11.308-17.422 18.932-25.051 44.557-44.557 116.795-44.557 161.352 0 7.628 7.628 13.919 16.083 18.932 25.051h642c30.72 0 55.621 24.901 55.621 55.621s-24.892 55.621-55.612 55.621z" />
<glyph unicode="&#xe93d;" glyph-name="sortDown" d="M983.607 92.882h-566.997c-22.312 0-40.398 18.086-40.398 40.398s18.086 40.398 40.398 40.398h566.992c22.312 0 40.398-18.086 40.398-40.398s-18.081-40.398-40.393-40.398zM369.777 244.992l-158.417-190.115c-10.026-12.021-27.905-13.641-39.93-3.615-1.309 1.093-2.522 2.301-3.615 3.615h0.055l-157.851 189.374c-10.018 12.035-8.394 29.907 3.636 39.93 5.078 4.231 11.468 6.548 18.078 6.566l104.921 0.251v510.609c0 29.355 23.8 53.156 53.156 53.156s53.156-23.8 53.156-53.156v-510.371l104.921 0.246c15.658 0.060 28.393-12.591 28.453-28.249 0.030-6.664-2.296-13.119-6.561-18.242zM813.504 420.321h-396.894c-22.312 0-40.398 18.086-40.398 40.398s18.086 40.398 40.398 40.398h396.894c22.312 0 40.398-18.086 40.398-40.398s-18.086-40.398-40.398-40.398zM643.406 752.007h-226.795c-22.312 0-40.398 18.086-40.398 40.398s18.086 40.398 40.398 40.398h226.795c22.312 0 40.398-18.086 40.398-40.398s-18.086-40.398-40.398-40.398z" />
<glyph unicode="&#xe93e;" glyph-name="sortUp" d="M983.607 89.433h-566.997c-22.312 0-40.398 18.086-40.398 40.398s18.086 40.398 40.398 40.398h566.992c22.312 0 40.398-18.086 40.398-40.398s-18.081-40.398-40.393-40.398zM369.777 651.013l-158.417 190.11c-10.026 12.026-27.905 13.641-39.93 3.615-1.309-1.093-2.522-2.306-3.615-3.615h0.055l-157.851-189.374c-10.018-12.030-8.394-29.907 3.636-39.927 5.078-4.231 11.468-6.553 18.078-6.566l104.921-0.246v-510.619c0-29.355 23.8-53.156 53.156-53.156s53.156 23.8 53.156 53.156v510.371l104.921-0.246c15.658-0.055 28.393 12.588 28.453 28.249 0.030 6.664-2.296 13.123-6.561 18.247zM813.504 416.872h-396.894c-22.312 0-40.398 18.086-40.398 40.398s18.086 40.398 40.398 40.398h396.894c22.312 0 40.398-18.086 40.398-40.398s-18.086-40.398-40.398-40.398zM643.406 748.559h-226.795c-22.312 0-40.398 18.086-40.398 40.398s18.086 40.398 40.398 40.398h226.795c22.312 0 40.398-18.086 40.398-40.398s-18.086-40.398-40.398-40.398z" />
<glyph unicode="&#xe93f;" glyph-name="navi" horiz-adv-x="1097" d="M844.617 457.93c-26.767 0-48.634-21.867-48.634-48.634v-66.845c0-26.767 21.867-48.634 48.634-48.634s48.634 21.867 48.634 48.634v66.845c0 26.767-21.867 48.634-48.634 48.634zM626.093 257.287h-157.347c-12.52 0.077-22.733-10.011-22.81-22.531-0.013-2.060 0.256-4.112 0.797-6.1v0c15.873-55.598 73.812-87.801 129.41-71.928 34.796 9.934 61.994 37.132 71.928 71.928v0c3.292 12.080-3.833 24.543-15.913 27.835-1.976 0.538-4.015 0.807-6.063 0.797zM303.574 409.296c0 26.767-21.94 48.634-48.671 48.634-26.767 0-48.671-21.867-48.671-48.634v-66.845c0-26.767 21.903-48.634 48.634-48.634 26.767 0 48.671 21.867 48.671 48.634v66.845zM844.983 698.905v0c45.359-13.548 82.336-46.584 100.888-90.138 22.123-51.925 34.373-109.115 34.373-169.122 0-46.696-7.386-91.637-21.099-133.725v0c-17.857-54.935-63.935-95.983-120.561-107.397v0c-54.819-11.028-101.504-46.692-126.558-96.683l-10.495-20.879c-25.26-36.712-66.966-58.646-111.529-58.654h-83.007c-44.575 0-86.298 21.94-111.529 58.654l-10.495 20.879c-25.054 49.991-71.738 85.655-126.558 96.683v0c-56.626 11.414-102.704 52.461-120.561 107.397v0c-14.030 43.187-21.151 88.317-21.099 133.725 0 60.006 12.249 117.196 34.373 169.122v0c18.552 43.576 55.543 76.627 100.924 90.174 53.936 16.089 145.353 31.813 296.448 31.813s242.512-15.724 296.484-31.813zM1005.694 448.020c0 122.134-47.537 236.953-133.908 323.251v0c-85.541 86.049-201.955 134.294-323.288 133.981-122.134 0-236.953-47.537-323.288-133.908v0c-86.021-85.553-134.24-201.966-133.908-323.288 0-122.134 47.537-236.953 133.908-323.288v0c85.547-86.035 201.96-134.267 323.288-133.944 122.134 0 236.953 47.537 323.288 133.908v0c86.009 85.546 134.226 201.943 133.908 323.251zM1097.001 500.383v-119.83c0-32.471-26.328-58.8-58.763-58.8h-6.509c-4.075 0.003-8.063 1.184-11.482 3.401-54.484-209.711-244.998-364.535-471.749-364.535-226.715 0-417.301 154.824-471.749 364.535v0c-3.42-2.217-7.407-3.398-11.482-3.401h-6.509c-32.435 0-58.763 26.328-58.763 58.8v119.83c0 32.471 26.328 58.763 58.763 58.763h6.509c2.825 0.005 5.622-0.555 8.228-1.646 49.658 216.476 243.499 377.882 475.004 377.882s425.309-161.443 475.004-377.882v0c2.606 1.092 5.402 1.652 8.228 1.646h6.509c32.435 0 58.763-26.328 58.763-58.763zM468.198 754.45h160.565c11.451 0.004 20.73 9.29 20.726 20.74-0.001 3.404-0.84 6.754-2.443 9.756l-33.422 62.2c-4.813 9.040-13.264 15.587-23.22 17.991v0c-13.758 3.025-27.822 4.435-41.906 4.205-18.869 0-32.545-2.011-41.906-4.241v0c-9.955-2.404-18.407-8.952-23.22-17.991l-33.422-62.163c-5.412-10.091-1.62-22.659 8.471-28.071 3.018-1.619 6.388-2.465 9.812-2.463zM773.494 142.979c-17.296-17.296-21.574-41.028-9.617-53.022 11.958-11.958 35.69-7.679 53.022 9.654 17.26 17.296 21.574 41.028 9.617 53.022-11.994 11.958-35.726 7.679-53.022-9.654zM317.798 142.979c17.296-17.296 21.574-41.028 9.617-53.022-11.994-11.958-35.69-7.679-53.022 9.654-17.26 17.296-21.574 41.028-9.617 53.022 11.994 11.958 35.726 7.679 53.022-9.654z" />
<glyph unicode="&#xe940;" glyph-name="qrcode" d="M68.267 891.734h143.565v-75.025h-68.54v-68.506h-75.025v143.531zM436.975 673.144v75.025h75.025v-75.025h-75.025zM737.143 523.060v75.025h74.991v-75.025h-74.991zM286.891 748.204h75.025v-75.059h-150.084v75.059h75.059zM68.267 147.798h75.025v-68.437h68.54v-75.093h-143.565v143.531zM211.831 222.892h150.084v-75.093h-150.084v75.093zM436.975 372.976h-75.059v-75.093h-150.084v75.093h75.059v75.025h-75.059v150.084h75.059v-75.025h75.025v-75.093h75.059v-74.991zM812.134 891.734h143.599v-143.531h-75.025v68.506h-68.574v75.025zM512 598.085v75.093h75.025v-75.093h-75.025zM587.025 372.976h75.025v-75.093h-150.050v-74.991h75.025v-75.025h-150.050v75.025h-75.059v75.059h75.059v75.025h75.025v75.025h-75.025v75.059h-75.059v150.118h75.059v-75.093h75.025v-75.025h75.025v75.025h75.025v-75.025h75.059v-150.084h-75.059v75.025h-75.025v-75.025zM812.134 147.832h-74.991v75.025h-75.059v75.059h75.059v75.025h74.991v-225.109zM662.050 598.051v75.093h-74.957v75.059h225.109v-75.093h-75.059v-75.025l-75.093-0.034zM880.708 147.832h75.025v-143.565h-143.599v75.059h68.574v68.506z" />
<glyph unicode="&#xe941;" glyph-name="share2" d="M744.729 215.273c-34.304 0-65.303-12.847-89.647-33.42l-288.675 181.388c3.491 12.241 5.958 24.901 5.958 38.213 0 11.59-1.815 22.668-4.469 33.466l267.497 188.882c30.766-22.529 68.329-36.166 109.335-36.166 102.82 0 186.182 83.363 186.182 186.182s-83.363 186.182-186.182 186.182-186.182-83.363-186.182-186.182c0-27.927 6.61-54.132 17.594-77.917l-259.678-183.343c-23.366 17.688-52.177 28.533-83.736 28.533-77.126 0-139.637-62.511-139.637-139.637 0-77.080 62.511-139.637 139.637-139.637 29.742 0 57.205 9.449 79.826 25.321l295.145-185.391c-1.583-8.517-2.606-17.221-2.606-26.112 0-77.080 62.557-139.637 139.637-139.637s139.637 62.557 139.637 139.637-62.557 139.637-139.637 139.637z" />
<glyph unicode="&#xe942;" glyph-name="logoTwitterAlt" d="M1023.999 764.798c-0.323-0.055-0.592-0.214-0.861-0.431-3.871-5.538-7.796-11.184-11.774-16.668-3.764-5.108-7.796-10.001-11.883-14.948-1.989-2.581-4.516-4.894-6.507-7.582-3.281-4.301-6.775-8.334-10.485-12.205-10.86-11.077-21.99-21.883-33.335-32.474-0.376-0.323-0.699-0.807-1.021-0.968-1.936-0.269-2.634-2.096-4.033-3.226-1.399-1.021-2.795-2.044-4.087-3.171-2.365-1.989-4.57-4.087-6.99-6.021-4.408-3.281-8.979-6.452-13.227-9.516-0.861-20.969 0.968-41.776-1.075-62.477-0.323-3.119 0.431-6.345-0.807-9.571-0.699-1.936 0-4.408-0.162-6.666-0.162-2.151-0.645-4.301-0.861-6.345-0.431-3.925-0.645-7.903-0.968-11.722v-0.483c-1.558-1.451-0.538-3.388-0.861-5.053s-0.645-3.333-0.861-5.053c-0.431-2.85-0.323-5.914-1.13-8.548-0.699-1.936-0.214-3.871-0.914-5.484-0.645-1.451-0.645-2.743-0.861-4.194-0.162-1.344-0.538-2.688-0.807-4.087-0.376-2.42 0-5.162-1.13-7.151-1.13-2.044-0.214-4.247-1.558-6.238-0.968-1.613-0.538-4.194-0.968-6.238-0.861-3.171-1.506-6.345-2.205-9.516-1.13-5.27-3.012-10.485-3.978-15.754s-2.743-10.43-4.087-15.538c-1.72-6.99-4.14-13.818-6.129-20.7-2.151-7.097-4.784-13.979-7.313-20.807-1.613-4.356-3.657-8.548-5.053-12.797-2.096-7.204-5.646-13.818-8.12-20.969-1.399-3.602-3.925-7.044-5.215-10.808-1.989-6.129-5.377-11.56-7.851-17.474-2.743-6.614-6.452-12.904-9.947-19.194-2.85-4.839-4.839-10.109-7.851-14.731-3.012-4.894-5.7-9.947-8.817-14.84-2.688-4.301-5.538-8.817-8.334-13.066-2.527-4.087-5.162-8.065-7.796-12.152-5.646-8.603-11.774-17.205-17.905-25.378l-10.323-13.335c-4.625-5.914-9.464-11.56-14.248-17.367-4.087-4.946-8.334-9.84-12.635-14.572-5.108-5.646-10.699-10.646-15.647-16.561-3.119-3.549-6.99-6.614-10.485-9.947-7.851-7.259-15.269-14.731-23.55-21.561-2.85-2.312-5.377-5.108-8.279-7.259-2.205-1.451-3.764-3.657-5.914-5.053-3.549-2.205-6.559-5.053-9.947-7.473-3.495-2.312-6.397-5.591-9.892-7.851-6.828-4.301-13.118-9.464-19.894-13.818-6.452-3.978-12.528-8.657-19.142-12.366-5.86-3.333-11.667-7.044-17.743-10.216-4.625-2.581-9.247-5.322-13.979-7.851-12.205-6.397-24.571-12.581-37.368-17.957-3.871-1.558-7.851-3.119-11.56-4.784-7.851-3.388-15.968-6.238-23.981-9.302-6.507-2.527-13.066-4.732-19.732-6.721-6.345-1.775-12.528-3.764-18.873-5.484-4.033-1.13-8.065-2.205-12.043-3.388-4.14-1.29-8.603-1.882-12.69-3.119-7.313-2.096-14.893-2.957-22.206-4.946-2.312-0.699-5.162 0-7.151-1.182-2.312-1.29-4.784 0-7.044-1.451-1.399-0.807-3.602-0.269-5.431-0.968-1.668-0.592-3.657-0.214-5.484-0.914-1.613-0.592-3.709-0.699-5.431-0.861-4.677-0.269-9.14-0.968-13.656-1.827-2.688-0.592-5.431-0.162-8.172-0.861-2.634-0.699-5.377-0.483-8.172-0.914-3.709-0.699-7.527-0.214-11.291-0.968-3.709-0.699-7.527-0.055-11.398-0.861-3.549-0.861-7.42 0-11.184-0.214s-7.527-0.807-11.291-0.914c-11.722-0.055-23.443-0.055-35.11 0-4.301 0.107-8.657-0.214-13.118 0.807-4.087 0.807-8.441 0.107-12.635 1.021-3.602 0.645-7.313-0.323-10.915 0.914-2.85 0.914-5.914-0.376-9.14 0.752-2.688 0.968-5.914 0.376-8.979 1.021-3.709 0.807-7.527 0.699-11.291 1.021-0.431 0-0.861 0-1.29 0.214-1.827 1.13-4.14 1.182-6.076 1.451-4.14 0.376-8.227 1.021-12.312 1.827-3.764 0.914-7.903 1.13-11.829 1.936-1.775 0.376-3.764 0.376-5.377 0.968-3.171 1.13-6.452 1.882-9.733 2.312-5.001 0.914-9.571 3.281-14.624 2.957-3.388 1.775-7.151 2.474-10.753 3.44l-10.968 2.85c-4.732 1.29-9.355 2.743-13.979 4.301-8.172 2.634-16.399 5.162-24.409 8.172-4.408 1.775-8.872 3.281-13.227 5.053-5.27 2.205-10.485 4.301-15.647 6.507l-9.678 4.033c-3.226 1.344-6.666 2.688-9.892 4.301-13.173 6.99-26.722 12.959-39.68 20.486-2.42 1.399-5.162 2.688-7.634 4.14-4.301 2.474-8.388 5.162-12.528 7.796-3.119 1.882-6.129 3.818-9.571 5.86 0.861 0.214 1.182 0.431 1.613 0.431h4.087c1.237-0.214 2.365-0.807 3.657-0.914 3.44-0.323 6.935 0.107 10.43-0.807 3.119-0.807 6.614-0.431 9.892-0.107s6.29-1.021 9.464-0.968c5.431 0 10.808-0.107 16.13 0 5.538 0.162 10.968-0.376 16.344 0.861 3.226 0.645 6.666 0 9.947 0.107 3.119 0.107 6.345 0.538 9.464 0.914 0.645 0 1.344-0.107 1.668 0.214 1.182 1.182 2.581 0.323 3.764 0.699 1.237 0.323 2.474 0.914 3.764 0.861 4.57-0.107 8.979 1.451 13.496 0.968 0.538 0 1.075 0.214 1.613 0.323 2.096 0.538 4.14 1.344 6.238 1.344 4.194 0.107 8.065 2.151 12.259 1.882 1.29 1.882 3.549 0.055 4.839 1.237 1.506 1.344 3.388-0.214 5.053 1.13 1.13 0.968 3.226 0.914 4.839 1.182 4.677 1.237 9.464 2.42 14.248 3.657 2.365 0.538 4.732 1.451 7.097 2.205 2.044 0.538 4.14 0.323 5.969 1.882 1.075 0.807 2.688 0.861 3.978 1.237 5.7 1.882 11.56 3.333 17.044 5.591 7.366 3.171 14.948 5.807 22.259 9.247l17.743 8.227c4.677 1.989 9.086 4.784 13.603 7.151 1.613 0.807 3.495 1.237 4.894 2.312 4.087 3.012 8.657 5.215 12.904 7.796 6.129 3.871 12.259 7.689 18.174 11.56 6.345 4.301 12.528 8.926 18.764 13.442 1.558 1.075 2.957 2.312 4.516 3.549-2.795 0.376-5.108 1.075-7.527 1.13-3.281 0.269-6.828-0.645-9.84 0.269-3.064 1.075-6.345-0.269-9.195 1.613-2.096-0.431-3.978 0.807-5.914 0.807-2.205 0.107-4.356 0.483-6.452 1.021-1.29 0.431-2.688 0.861-4.087 0.861-2.688 0.107-5.322 0.861-7.742 1.989-0.914 0.323-1.72 0.807-2.795 0.807-0.861 0-1.72 0.323-2.42 0.431-2.688 0.699-5.001 1.936-7.582 2.634-5.108 1.29-10.054 3.226-14.731 5.591-7.689 3.871-15.592 7.366-22.958 11.936-6.076 3.549-11.99 7.42-17.743 11.453-7.689 5.484-14.948 11.505-21.668 18.119-3.549 3.657-7.259 7.259-10.753 10.86-2.581 2.688-5.108 5.431-7.366 8.334-3.978 5.162-7.796 10.43-11.453 15.861-4.356 6.397-8.279 13.011-11.774 19.894-2.151 4.14-4.087 8.441-6.076 12.635-1.882 4.033-3.012 8.334-5.215 12.312-1.182 2.044-1.344 4.732-2.151 7.851 1.989-0.861 3.333 0 5.001-0.861 1.882-0.968 4.087-1.075 6.238-1.237 2.42-0.323 4.839-0.107 7.313-0.861 2.044-0.645 4.463 0 6.666-0.162 2.312-0.162 4.57-0.807 6.883-0.914 9.464-0.431 18.926 0.483 28.442 0.968 1.182 0.107 2.365 0.752 3.602 0.861 1.558 0.107 3.064 0 4.408 0 0.269 0 0.431 0 0.538 0.107 1.344 1.451 3.064 0.538 4.57 0.914 1.558 0.431 2.903 1.13 4.625 0.861 1.882-0.269 3.818 0.376 5.162 1.72 3.657-0.055 7.313 0.914 10.485 2.743-1.237 0-2.205-0.214-2.957 0.107-3.495 1.13-7.151 1.613-10.539 2.85-3.226 1.075-6.559 1.29-9.733 2.527-2.151 0.807-4.301 2.096-6.559 2.688-6.559 1.399-12.366 4.839-18.442 7.42-3.818 1.558-7.42 3.871-11.077 5.914-7.634 4.301-14.948 9.033-22.044 14.194-7.689 5.538-14.893 11.614-21.668 18.226-3.549 3.602-7.259 7.151-10.753 10.808-2.634 2.581-5.053 5.322-7.313 8.227-3.925 5.215-7.742 10.539-11.453 15.916-8.12 11.667-14.786 24.357-19.839 37.637-1.075 2.474-1.775 5.215-3.012 7.742-1.882 3.871-2.903 8.065-3.925 12.312-1.075 4.301-2.096 8.71-3.388 12.959-1.075 3.226-1.668 6.559-1.936 9.947-0.107 3.226-1.613 6.29-0.968 9.571-1.613 2.688-0.162 5.86-1.075 8.603-0.914 2.903-0.699 5.7-0.752 8.603-0.107 3.226 0 6.238 0 9.464 0 0.807 0.107 1.613 0.214 2.42l8.817-4.463c6.721-3.495 13.603-6.29 20.646-8.926 3.764-1.399 7.742-2.258 11.398-3.978 2.151-0.968 4.516-1.451 6.883-1.72 1.72-0.323 3.388-0.538 4.516-1.827 1.613-0.538 3.226 0.323 4.784-0.861 1.021-0.914 2.903-0.214 4.516-0.914 2.151-0.914 4.784-0.752 7.151-1.021 0.538-0.107 1.29 0.055 1.827-0.162 3.119-1.237 6.397-1.237 9.678-1.613 3.226-0.323 6.559-0.055 9.84-0.055l2.474 0.269c-1.775 1.558-3.226 3.064-4.946 4.087-5.7 3.602-11.077 7.851-15.861 12.581-7.044 6.397-13.656 13.227-19.894 20.431-4.784 5.591-9.302 11.346-13.549 17.367-4.625 6.452-8.603 13.442-12.528 20.431-3.226 5.646-5.377 11.883-8.441 17.581-0.214 0.376-0.214 0.807-0.376 1.237-1.237 2.634-1.613 5.591-2.957 8.227-1.075 1.989-1.882 4.033-2.474 6.183-1.021 3.281-1.72 6.721-2.688 10.054-1.182 3.602-2.365 7.151-2.903 10.968-0.269 1.613-0.269 3.602-0.807 5.053-1.775 4.14-1.344 8.603-2.527 12.904-0.592 2.474-0.214 5.053-0.807 7.689-0.699 2.688-0.055 5.646-0.214 8.603-0.107 2.743-0.645 5.646-0.861 8.548-0.107 2.688 0.214 5.377 0 8.065-0.376 2.903 0.914 5.431 0.968 8.227 0.107 4.194 0.214 8.441 1.021 12.635 0.431 2.258 0.269 4.625 0.861 6.775 0.645 2.743 1.13 5.538 1.775 8.279 0.323 1.882 0.323 3.764 0.968 5.484 0.645 2.096 1.13 4.247 1.668 6.452 0.538 2.365 1.882 4.356 1.827 6.828 3.012 8.979 6.345 17.798 10.001 26.453l6.99 14.248c0.807 1.399 1.989 2.688 3.171 4.408 2.743-3.764 5.484-7.151 8.334-10.377 4.839-5.377 9.516-10.753 14.248-16.185 4.732-5.27 10.161-10.001 14.731-15.431 3.064-3.764 6.828-6.935 10.539-10.054 5.591-4.625 10.161-10.377 15.916-14.893 4.194-3.333 7.689-7.313 11.829-10.646 2.044-1.72 3.818-3.602 5.914-5.162 4.408-3.226 8.603-6.775 12.904-10.161 1.882-1.399 3.495-3.119 5.27-4.463 5.001-3.602 10.109-6.935 14.948-10.592 6.559-4.839 13.28-9.247 19.894-13.872 5.377-3.657 11.077-6.721 16.344-10.485 2.688-1.989 5.753-3.549 8.657-5.108 5.377-2.743 10.054-6.614 15.807-8.657 5.914-4.57 13.173-6.721 19.356-10.753 2.743-1.668 6.129-2.743 9.033-4.194 6.935-3.226 13.711-6.614 20.646-9.785 2.312-1.021 4.516-2.205 6.883-3.012 5.377-1.882 10.485-4.14 15.861-6.238 5.646-2.151 11.291-4.516 17.151-6.345 8.496-2.85 16.937-6.238 25.808-8.227 1.613-0.431 3.064-1.451 4.677-1.775 5.053-0.968 9.892-2.903 15-4.033 4.194-0.914 8.388-2.205 12.581-3.119 3.171-0.699 6.345-1.506 9.571-2.096 3.764-0.699 7.527-1.882 11.505-2.527 1.827-0.323 3.925-0.323 5.377-1.021 1.613-0.807 3.44 0 4.57-0.807 1.558-1.182 3.226-0.376 4.625-0.861 1.558-0.376 3.012-0.752 4.57-0.914 2.312-0.162 4.516-1.182 6.935-0.752 3.978-2.151 8.603-1.613 12.797-2.634 2.581-0.699 5.377-0.269 8.172-0.914 2.581-0.699 5.377-0.107 8.12-0.914 2.474-0.645 5.27 0.376 7.742-1.021 4.732 0.483 9.302-0.645 13.979-0.861 3.549-0.214 6.99 0.592 10.485-0.861 0.538-0.269 1.344 0 2.581 0-0.592 1.075-1.182 1.558-1.182 2.151-0.162 3.657-1.827 7.151-1.989 10.915-0.055 1.237-0.645 2.42-0.752 3.602-0.162 1.399 0.376 3.012-0.162 4.033-1.29 2.312-0.538 4.625-0.752 6.935-0.376 2.365-0.914 4.839-0.914 7.204-0.107 5.591-0.107 11.129 0 16.668 0.055 5.377-0.162 10.753 0.699 16.237 0.431 3.333 0.752 6.721 1.237 9.947 0.269 2.312 0.214 4.677 0.807 6.828 1.075 4.087 1.72 8.227 2.688 12.366 0.538 2.85 1.72 5.646 2.312 8.496 0.538 2.581 1.936 4.946 2.151 7.634 0.269 2.688 1.775 4.946 2.743 7.42 1.936 4.946 3.657 9.84 5.914 14.572 5.914 13.066 13.173 25.432 21.668 36.992 2.474 3.388 5.108 6.666 7.851 9.785 3.171 3.602 6.021 7.473 9.355 10.86 6.076 6.29 12.366 12.205 19.142 17.688 4.301 3.388 8.548 6.883 13.011 10.001 6.183 4.408 12.635 8.548 19.356 12.043 7.42 3.925 15 7.473 22.958 10.753 7.044 2.903 14.624 4.408 21.452 7.689 6.076 0.645 11.774 2.957 17.85 3.764 2.096 0.214 4.516 0 6.29 0.914 1.827 0.968 3.44 0.431 5.053 0.699 1.882 0.376 3.495 1.29 5.591 0.968 1.451-0.214 2.957-0.055 4.408 0 0.269 0 0.538 0.538 0.752 0.861h31.508c0-1.29 0.968-0.861 1.613-0.861 2.474-0.055 5.215 0.376 7.634-0.214 1.344-0.376 2.634-0.538 4.194-0.752 1.399-0.162 2.957-0.914 4.516-0.807 4.408 0.269 8.334-2.044 12.69-1.827 2.581-1.668 5.591-1.882 8.388-2.42 3.064-0.645 5.753-2.527 9.033-2.151 7.473-3.119 15.216-5.377 22.475-8.872 18.818-9.14 20.27-9.785 35.969-20.593 8.334-5.753 16.292-11.99 23.496-19.194 2.743-2.581 5.322-5.27 8.172-8.12 3.064 0.323 6.666 0.107 9.678 1.237 3.978 1.399 8.065 2.258 12.152 3.226 6.935 1.72 13.765 3.709 20.593 5.646 0.807 0.162 1.506 0.645 2.42 0.807 4.516 0.807 8.764 2.527 13.011 4.194 5.7 2.151 11.453 4.194 17.151 6.559 6.828 2.743 13.765 5.484 20.646 8.71 10.109 4.677 20.001 9.733 29.679 15.162 2.42 1.506 5.001 2.85 7.958 4.57 0-1.075 0.214-1.72 0-2.151-0.538-2.044-1.021-4.14-1.882-6.021-2.743-6.129-5.053-12.635-7.958-18.657-1.989-4.301-4.677-8.172-6.775-12.528-1.936-3.871-4.408-7.42-6.775-11.022-3.171-4.946-6.666-9.678-10.27-14.194-9.571-12.635-20.7-24.033-33.067-33.928-4.625-3.549-9.14-7.313-14.086-10.377-3.064-1.936-5.914-4.14-9.733-6.721 1.399 0 2.151-0.214 2.474 0 1.613 1.075 3.333 0.807 5.053 0.914 1.613 0.162 3.333 0.645 5.053 0.861 2.957 0.431 6.076 0.269 9.086 1.021 4.356 1.075 8.657 2.151 13.28 2.688 1.451 1.558 3.549 0.538 5.322 1.075 3.012 0.968 5.914 1.668 8.872 2.42l14.303 3.602c6.021 1.613 11.936 3.871 17.957 5.484 2.42 0.592 4.625 1.882 7.044 2.581 8.926 2.688 17.42 6.452 25.863 9.947 1.775 0.645 3.388 1.506 5.215 1.775v-0.807z" />
<glyph unicode="&#xe943;" glyph-name="logoFacebookAlt" d="M800.070 756.084h-164.489c-19.388 0-41.185-26.469-41.185-61.727v-104.872h205.725v-204.519h-205.725v-448.967h-205.874v448.967h-164.64v204.519h164.64v102.812c0 147.764 110.748 267.703 247.11 267.703h164.438v-203.916z" />
<glyph unicode="&#xe944;" glyph-name="naviAlt" d="M788.412 457.249c24.986 0 45.397-20.412 45.397-45.397v-62.396c0-24.986-20.412-45.397-45.397-45.397s-45.397 20.412-45.397 45.397v62.396c0 24.986 20.412 45.397 45.397 45.397zM584.431 269.959h-0.005c0.034 0 0.067 0 0.101 0 11.688 0 21.163-9.475 21.163-21.163 0-1.98-0.272-3.896-0.745-5.564l-0.173-0.691c-11.884-40.573-49.38-70.205-93.796-70.205s-81.911 29.632-93.969 70.896l0.036-0.149c-0.508 1.817-0.78 3.733-0.78 5.713 0 11.688 9.475 21.163 21.163 21.163 0.046 0 0.091 0 0.13 0h146.876zM283.341 411.851v-62.396c0-24.986-20.446-45.397-45.431-45.397-24.951 0-45.397 20.412-45.397 45.397v62.396c0 24.986 20.446 45.397 45.431 45.397 24.951 0 45.431-20.412 45.431-45.397zM788.753 682.222c-50.381 15.019-135.714 29.696-276.753 29.696s-226.372-14.677-276.719-29.696l-1.053-0.277c-41.698-12.765-75.596-43.38-93.155-83.896-20.651-48.469-32.085-101.854-32.085-157.867v0.025c0-0.162 0-0.323 0-0.485 0-44.454 7.207-87.224 19.695-124.365l0.304-1.055c16.636-49.954 58.939-88.178 112.233-99.195l1.098-0.19c50.982-10.55 93.588-43.991 117.038-90.059l9.796-19.49c23.552-34.27 62.498-54.75 104.107-54.75h77.484c43.015 0.008 81.008 21.502 104.105 54.75l9.796 19.49 0.445 0.961c23.005 45.107 65.612 78.548 117.691 89.288l0.968 0.168c52.326 10.85 94.63 49.074 111.57 100.082 12.8 39.287 19.695 81.237 19.695 124.826 0 56.013-11.435 109.397-32.085 157.867l-0.372 0.96c-17.189 39.535-51.072 70.135-93.802 83.179zM1024 496.912v-111.855c0-30.31-24.576-54.886-54.852-54.886h-6.076c-3.985 0.003-7.693 1.187-10.793 3.221l0.075-0.046c-50.859-195.755-228.693-340.275-440.354-340.275-211.627 0-389.53 144.521-440.354 340.275-3.025-1.988-6.733-3.171-10.717-3.174h-6.077c-30.276-0.034-54.852 24.542-54.852 54.852v111.855c0 30.31 24.576 54.852 54.852 54.852h6.076c0.010 0 0.022 0 0.034 0 2.76 0 5.388-0.565 7.775-1.585l-0.129 0.049c46.353 202.069 227.294 352.734 443.392 352.734s397.005-150.699 443.392-352.734c2.256 0.971 4.881 1.536 7.639 1.536 0.014 0 0.029 0 0.043 0h6.074c30.276 0 54.852-24.576 54.852-54.852zM437.043 768.169h149.879c10.686 0.004 19.347 8.667 19.347 19.354 0 3.336-0.844 6.476-2.331 9.216l0.051-0.102-31.198 58.061c-4.505 8.339-12.219 14.457-21.445 16.745l-0.23 0.048c-10.924 2.51-23.468 3.948-36.348 3.948-0.973 0-1.945-0.008-2.915-0.025l0.146 0.002c-17.613 0-30.379-1.877-39.117-3.959-9.455-2.337-17.169-8.454-21.587-16.617l-0.088-0.177-31.198-58.027c-1.447-2.647-2.298-5.798-2.298-9.148 0-10.689 8.665-19.354 19.354-19.354 0.004 0 0.008 0 0.012 0h-0.001zM722.022 163.258c-16.145-16.145-20.139-38.298-8.977-49.493 11.162-11.162 33.314-7.168 49.493 9.011 16.111 16.145 20.139 38.298 8.977 49.493-11.196 11.162-33.348 7.168-49.493-9.011zM296.653 163.258c-16.145 16.179-38.298 20.173-49.493 9.011-11.162-11.196-7.134-33.348 8.977-49.493 16.179-16.179 38.298-20.173 49.493-9.011 11.162 11.196 7.168 33.348-8.977 49.493z" />
</font>
</defs>
</svg>
